<?xml version="1.0" encoding="UTF-8"?>
<svg width="42px" height="43px" viewBox="0 0 42 43" version="1.1" xmlns="http://www.w3.org/2000/svg" xmlns:xlink="http://www.w3.org/1999/xlink">
    <title>pixelscript_logo_horizontal_white copy</title>
    <g id="Page-1" stroke="none" stroke-width="1" fill="none" fill-rule="evenodd">
        <g id="Desktop-HD" transform="translate(-220.000000, -80.000000)">
            <g id="Group-29" transform="translate(220.000000, 80.000000)">
                <polygon id="Fill-17" fill="#0F62FE" points="10.2645272 31.7550669 5.13273316 26.6274664 10.2645272 21.5005361 15.3963212 26.6274664"></polygon>
                <polygon id="Fill-18" fill="#0043CE" points="15.3965895 36.8821983 10.2647955 31.755268 15.3965895 26.6276675 20.5283835 31.755268"></polygon>
                <polygon id="Fill-19" fill="#4589FF" points="5.13246483 26.6275335 0 21.5006032 5.13246483 16.3730027 10.2642588 21.5006032"></polygon>
                <polygon id="Fill-20" fill="#78A9FF" points="10.2645272 21.5003351 5.13273316 16.3734048 10.2645272 11.2458043 15.3963212 16.3734048"></polygon>
                <polygon id="Fill-21" fill="#A6C8FF" points="15.3965895 16.3731367 10.2647955 11.2462064 15.3965895 6.11860595 20.5283835 11.2462064"></polygon>
                <polygon id="Fill-22" fill="#0043CE" points="18.4585599 39.9412667 15.3969249 43 12.3346191 39.9412667 15.3969249 36.8825334"></polygon>
                <polygon id="Fill-23" fill="#33B1FF" points="30.7927765 11.2449331 35.9245705 16.3725336 30.7927765 21.4994639 25.6609825 16.3725336"></polygon>
                <polygon id="Fill-24" fill="#82CFFF" points="25.6607142 6.11780172 30.7925082 11.244732 25.6607142 16.3723325 20.5289202 11.244732"></polygon>
                <polygon id="Fill-25" fill="#1192E8" points="35.9248388 16.3724665 41.0566329 21.4993968 35.9248388 26.6269973 30.7930448 21.4993968"></polygon>
                <polygon id="Fill-26" fill="#0072C3" points="30.7927765 21.4996649 35.9245705 26.6265952 30.7927765 31.7541957 25.6609825 26.6265952"></polygon>
                <polygon id="Fill-27" fill="#00539A" points="25.6607142 26.6268633 30.7925082 31.7537936 25.6607142 36.8813941 20.5289202 31.7537936"></polygon>
                <polygon id="Fill-28" fill="#82CFFF" points="22.5987437 3.05873332 25.6603788 0 28.7226846 3.05873332 25.6603788 6.11746663"></polygon>
            </g>
        </g>
    </g>
</svg>