<?xml version="1.0" encoding="UTF-8"?>
<svg width="222px" height="43px" viewBox="0 0 222 43" version="1.1" xmlns="http://www.w3.org/2000/svg" xmlns:xlink="http://www.w3.org/1999/xlink">
    <title>pixelscript_logo_horizontal_white</title>
    <g id="Page-1" stroke="none" stroke-width="1" fill="none" fill-rule="evenodd">
        <g id="Desktop-HD" transform="translate(-120.000000, -80.000000)">
            <g id="Group-29" transform="translate(120.000000, 80.000000)">
                <path d="M60.9889233,27.9492092 C61.7274991,27.9492092 62.4285089,27.8131612 63.0946359,27.5417355 C63.760092,27.2696396 64.3403537,26.8829417 64.8360917,26.3809717 C65.3331714,25.8796718 65.7289568,25.2684613 66.0254604,24.5500209 C66.3212933,23.8302401 66.4702159,23.0179735 66.4702159,22.1112105 C66.4702159,21.2406376 66.3246474,20.4464661 66.0341811,19.7266853 C65.7443857,19.0075747 65.3506128,18.3943536 64.8548748,17.8863519 C64.3584659,17.3790203 63.7775334,16.9862908 63.1127481,16.7081632 C62.4472919,16.4300356 61.7328657,16.2906367 60.9714819,16.2906367 C60.2087564,16.2906367 59.495001,16.442099 58.8295448,16.7443533 C58.1640887,17.0466076 57.583827,17.4574322 57.0874182,17.9774973 C56.5910093,18.4968922 56.2005905,19.1107835 55.9161617,19.8178307 C55.6324036,20.524878 55.4901892,21.2888911 55.4901892,22.1112105 C55.4901892,22.9569865 55.638441,23.7397648 55.9349447,24.4588755 C56.2314484,25.1779861 56.6279046,25.7945581 57.1236426,26.3085915 C57.6200514,26.8219547 58.2036672,27.2240669 58.8751608,27.5142578 C59.5466544,27.8044488 60.2510182,27.9492092 60.9889233,27.9492092 L60.9889233,27.9492092 Z M51.1526493,12.7915906 L55.3271793,12.7915906 L55.3271793,15.9280656 C55.665274,15.3604172 56.0617302,14.8497347 56.5158772,14.3960182 C56.9693534,13.9429718 57.4717996,13.5596248 58.0218743,13.2453071 C58.5719489,12.9309894 59.1622729,12.6863712 59.7915047,12.5107822 C60.4200656,12.3358634 61.0674095,12.2480689 61.7328657,12.2480689 C63.0644488,12.2480689 64.2833338,12.5074313 65.3901913,13.0274964 C66.4970488,13.5475615 67.4563254,14.2512578 68.2666792,15.1399257 C69.0777039,16.0279234 69.7062648,17.0707343 70.1537036,18.2676883 C70.6018132,19.463972 70.8251972,20.7453695 70.8251972,22.1112105 C70.8251972,23.4770516 70.5984591,24.7611298 70.1449829,25.9641154 C69.6915067,27.167101 69.062275,28.2152734 68.2572877,29.1093028 C67.4529712,30.0040024 66.5004029,30.7083689 65.398912,31.2217321 C64.2987627,31.7357655 63.0946359,31.9924471 61.7872023,31.9924471 C61.1103422,31.9924471 60.4569608,31.9080036 59.8277291,31.7384463 C59.1984974,31.5695592 58.6115275,31.3276217 58.0674902,31.013304 C57.5227821,30.6996565 57.0303982,30.3243518 56.5876552,29.8894004 C56.1462539,29.4544491 55.7685807,28.9645424 55.4539648,28.4210208 L55.5451967,30.5783526 L55.5451967,37.7942557 L51.1526493,37.7942557 L51.1526493,12.7915906 Z" id="Fill-2" fill="#FFFFFF"></path>
                <polygon id="Fill-4" fill="#FFFFFF" points="73.7257006 31.4301603 78.1175771 31.4301603 78.1175771 12.7915906 73.7257006 12.7915906"></polygon>
                <polygon id="Fill-6" fill="#FFFFFF" points="86.3898278 21.8210196 80.455059 12.7915906 85.6089901 12.7915906 89.4387172 18.9197802 89.4561586 18.9197802 93.2858856 12.7915906 98.4223754 12.7915906 92.5057188 21.8210196 98.6940586 31.4301603 93.4857908 31.4301603 89.4018219 24.8851144 85.3010825 31.4301603 80.2196002 31.4301603"></polygon>
                <path d="M113.081865,19.8811634 C113.033566,19.3610983 112.869885,18.8685109 112.592164,18.4034011 C112.313102,17.9382914 111.95287,17.5334984 111.511469,17.1883522 C111.070067,16.843876 110.558901,16.5690994 109.977968,16.363352 C109.397706,16.1582748 108.786587,16.0557362 108.14528,16.0557362 C107.589168,16.0557362 107.047143,16.1307971 106.521218,16.2822594 C105.995293,16.4330514 105.507605,16.6656063 105.060166,16.979924 C104.612057,17.2942417 104.216271,17.6930029 103.871469,18.1768779 C103.526666,18.6600827 103.263032,19.2284013 103.08191,19.8811634 L113.081865,19.8811634 Z M117.564302,21.7844944 C117.564302,22.0264319 117.558265,22.2469234 117.545519,22.4466391 C117.534115,22.6456846 117.509966,22.9211315 117.473741,23.2716392 L102.900117,23.2716392 C103.00879,24.0329716 103.221441,24.7125412 103.536057,25.3116884 C103.850002,25.9094951 104.234384,26.4114652 104.68786,26.8162581 C105.141336,27.221051 105.659211,27.532688 106.240144,27.7498286 C106.820405,27.9676393 107.431525,28.0762096 108.072831,28.0762096 C109.185726,28.0762096 110.087312,27.8583988 110.776247,27.4234475 C111.466524,26.9884962 111.968299,26.3719242 112.283586,25.5744017 L117.073931,25.5744017 C116.843839,26.4081142 116.466166,27.2116684 115.940241,27.9857344 C115.413645,28.7591301 114.769655,29.4420506 114.006929,30.0344959 C113.244875,30.6269412 112.370122,31.1014336 111.384683,31.4573029 C110.398574,31.8145125 109.324587,31.9927822 108.163392,31.9927822 C106.760031,31.9927822 105.468027,31.7327497 104.28872,31.2126846 C103.109414,30.6932897 102.089763,29.9862425 101.23111,29.0915429 C100.371786,28.1975135 99.7002927,27.1486708 99.2166295,25.9456852 C98.7322955,24.7433698 98.4901285,23.4653233 98.4901285,22.1115456 C98.4901285,20.7457046 98.7322955,19.4636369 99.2166295,18.2673532 C99.7002927,17.0710694 100.371786,16.0255778 101.23111,15.1308782 C102.089763,14.2361786 103.109414,13.5291313 104.28872,13.0097364 C105.468027,12.4896713 106.760031,12.2296388 108.163392,12.2296388 C109.566754,12.2296388 110.846013,12.4863204 112.00184,13.0003538 C113.156997,13.5143872 114.146461,14.2093711 114.968889,15.0853054 C115.791318,15.96191 116.429941,16.9772433 116.883417,18.1313052 C117.337564,19.2860374 117.564302,20.5037671 117.564302,21.7844944 L117.564302,21.7844944 Z" id="Fill-7" fill="#FFFFFF"></path>
                <polygon id="Fill-8" fill="#FFFFFF" points="120.210363 31.4308305 124.602239 31.4308305 124.602239 5.88397349 120.210363 5.88397349"></polygon>
                <path d="M135.523636,31.9926482 C134.156499,31.9926482 132.967801,31.8083468 131.958213,31.439744 C130.947283,31.0711411 130.11278,30.5845854 129.453361,29.9800767 C128.793942,29.3755681 128.303571,28.6839352 127.983588,27.9038375 C127.662264,27.1244101 127.502609,26.3235367 127.502609,25.5018874 L131.712692,25.5199825 C131.736842,25.9428705 131.830757,26.3382808 131.993767,26.7075538 C132.156777,27.0761566 132.399615,27.3931551 132.719597,27.6592193 C133.040921,27.9252835 133.436707,28.1337117 133.908966,28.2845037 C134.380554,28.435966 134.930629,28.5116971 135.560531,28.5116971 C136.697576,28.5116971 137.535433,28.2965671 138.073433,27.8676474 C138.612104,27.4387278 138.881104,26.8677285 138.881104,26.1546495 C138.881104,25.7552181 138.79658,25.4261563 138.626862,25.1661238 C138.457815,24.9060912 138.203573,24.6855997 137.864807,24.5046492 C137.526042,24.3230286 137.114828,24.1749172 136.630494,24.0603153 C136.14683,23.9457133 135.584681,23.8398238 134.943374,23.7426466 C134.047826,23.622013 133.19454,23.4343606 132.384186,23.18103 C131.573161,22.9270291 130.86276,22.5765213 130.252311,22.1295066 C129.640521,21.6818217 129.156857,21.120205 128.79998,20.4433162 C128.442431,19.7664274 128.264663,18.944108 128.264663,17.9770282 C128.264663,17.1191889 128.415598,16.3364105 128.718139,15.6293632 C129.02068,14.922316 129.46879,14.3178073 130.061126,13.8158373 C130.654134,13.3145374 131.389355,12.9244886 132.266792,12.6470312 C133.143557,12.3689036 134.150462,12.2295047 135.287506,12.2295047 C136.413147,12.2295047 137.438164,12.3749353 138.3639,12.6651263 C139.289635,12.9553172 140.081877,13.3627909 140.741295,13.8888877 C141.400714,14.4143143 141.911881,15.0429496 142.274796,15.7741236 C142.637711,16.5059678 142.819504,17.3182344 142.819504,18.212934 L138.518189,18.1767439 C138.46989,17.4877917 138.179423,16.9228241 137.64679,16.4811709 C137.114828,16.0401878 136.334661,15.8196963 135.30629,15.8196963 C134.362442,15.8196963 133.672836,16.0220928 133.237472,16.4268857 C132.801437,16.8316786 132.58342,17.3182344 132.58342,17.8865529 C132.58342,18.2370607 132.635073,18.5332834 132.73838,18.7752208 C132.841016,19.0171583 133.037567,19.2255865 133.328033,19.4005053 C133.617829,19.5760943 134.017639,19.7268863 134.526123,19.8542219 C135.033935,19.9808872 135.687317,20.1109035 136.485596,20.2436005 C137.453593,20.3890311 138.355179,20.5793642 139.189682,20.8145998 C140.024857,21.0505056 140.750687,21.3802376 141.367844,21.8031256 C141.98433,22.2260135 142.471347,22.7668544 142.828896,23.4256482 C143.185103,24.084442 143.364212,24.9094422 143.364212,25.9006487 C143.364212,26.9280453 143.167661,27.8220747 142.774559,28.5840773 C142.380786,29.3454097 141.833395,29.9800767 141.131043,30.4874083 C140.429363,30.99541 139.600897,31.3733954 138.644974,31.6206944 C137.689723,31.8686636 136.649277,31.9926482 135.523636,31.9926482" id="Fill-9" fill="#FFFFFF"></path>
                <path d="M154.375499,31.9926482 C152.984213,31.9926482 151.698917,31.7326157 150.51961,31.2125506 C149.339633,30.6931557 148.323337,29.9861084 147.47005,29.0914088 C146.617434,28.1973794 145.948624,27.1485368 145.464961,25.9462214 C144.981298,24.7432358 144.739131,23.4651892 144.739131,22.1114116 C144.739131,20.7576339 144.981298,19.4822681 145.464961,18.2853142 C145.948624,17.0890304 146.617434,16.0401878 147.47005,15.1401267 C148.323337,14.2393955 149.339633,13.5289973 150.51961,13.0096024 C151.698917,12.4895373 152.984213,12.2295047 154.375499,12.2295047 C155.573589,12.2295047 156.68313,12.4111254 157.706134,12.7736966 C158.727797,13.1362677 159.636091,13.6348868 160.427662,14.2695539 C161.220575,14.9042209 161.892068,15.6568409 162.442143,16.5267436 C162.993559,17.3973164 163.401419,18.3463012 163.667736,19.3730276 L159.185298,19.3730276 C158.761338,18.3342378 158.123386,17.5635228 157.2701,17.0615528 C156.417484,16.5602529 155.458207,16.309603 154.393612,16.309603 C153.716751,16.309603 153.060016,16.4389491 152.424747,16.6989816 C151.790149,16.9590142 151.223974,17.3363294 150.728236,17.8322678 C150.231827,18.327536 149.835371,18.9353955 149.539538,19.6545062 C149.243035,20.3736168 149.094783,21.1925852 149.094783,22.1114116 C149.094783,23.0295677 149.246389,23.8485362 149.548259,24.5676468 C149.8508,25.2874276 150.247256,25.8972977 150.736957,26.3992678 C151.227328,26.9005676 151.792161,27.281904 152.433468,27.5412664 C153.075445,27.8012989 153.728155,27.9313152 154.393612,27.9313152 C154.926245,27.9313152 155.437412,27.8676474 155.927112,27.7409821 C156.417484,27.6136466 156.868277,27.414601 157.279491,27.1425051 C157.690705,26.8704092 158.059658,26.5259331 158.386349,26.1090768 C158.713039,25.6922205 158.979356,25.1936014 159.185298,24.6132195 L163.649624,24.6132195 C163.407457,25.6888696 163.014355,26.6800761 162.469647,27.5868391 C161.925609,28.4929319 161.254116,29.2730295 160.455166,29.9257916 C159.656887,30.5785537 158.743897,31.0858852 157.715526,31.4484564 C156.686484,31.8110275 155.573589,31.9926482 154.375499,31.9926482" id="Fill-10" fill="#FFFFFF"></path>
                <path d="M166.277974,12.7917916 L170.488058,12.7917916 L170.488058,16.1641724 C170.924093,15.1367758 171.562045,14.3178073 172.403257,13.707267 C173.243798,13.0973969 174.275523,12.7917916 175.497091,12.7917916 L177.49346,12.7917916 L177.49346,16.5629337 L175.733221,16.5629337 C174.983241,16.5629337 174.296319,16.6989816 173.673124,16.9710775 C173.050601,17.2431734 172.517968,17.6419347 172.076566,18.1673613 C171.634494,18.693458 171.289691,19.3428692 171.042158,20.1169352 C170.793282,20.8903309 170.669851,21.772297 170.669851,22.7635035 L170.669851,31.4303613 L166.277974,31.4303613 L166.277974,12.7917916 Z" id="Fill-11" fill="#FFFFFF"></path>
                <polygon id="Fill-12" fill="#FFFFFF" points="179.70362 31.4301603 184.095496 31.4301603 184.095496 12.7915906 179.70362 12.7915906"></polygon>
                <path d="M198.138768,27.9492092 C198.877344,27.9492092 199.578353,27.8131612 200.24448,27.5417355 C200.909937,27.2696396 201.490198,26.8829417 201.985936,26.3809717 C202.483016,25.8796718 202.878131,25.2684613 203.175305,24.5500209 C203.471138,23.8302401 203.620061,23.0179735 203.620061,22.1112105 C203.620061,21.2406376 203.474492,20.4464661 203.184026,19.7266853 C202.89423,19.0075747 202.500457,18.3943536 202.004719,17.8863519 C201.50831,17.3790203 200.927378,16.9862908 200.262593,16.7081632 C199.597136,16.4300356 198.88271,16.2906367 198.121326,16.2906367 C197.358601,16.2906367 196.644175,16.442099 195.979389,16.7443533 C195.313933,17.0466076 194.733001,17.4574322 194.237263,17.9774973 C193.740854,18.4968922 193.350435,19.1107835 193.066006,19.8178307 C192.782248,20.524878 192.640034,21.2888911 192.640034,22.1112105 C192.640034,22.9569865 192.788286,23.7397648 193.084789,24.4588755 C193.381293,25.1779861 193.777078,25.7945581 194.273487,26.3085915 C194.769896,26.8219547 195.353512,27.2240669 196.025005,27.5142578 C196.696499,27.8044488 197.400863,27.9492092 198.138768,27.9492092 L198.138768,27.9492092 Z M188.302494,12.7915906 L192.477024,12.7915906 L192.477024,15.9280656 C192.815119,15.3604172 193.211575,14.8497347 193.665722,14.3960182 C194.119198,13.9429718 194.621644,13.5596248 195.171719,13.2453071 C195.721793,12.9309894 196.312118,12.6863712 196.941349,12.5107822 C197.56991,12.3358634 198.217254,12.2480689 198.88271,12.2480689 C200.214293,12.2480689 201.432508,12.5074313 202.540036,13.0274964 C203.646893,13.5475615 204.60617,14.2512578 205.416524,15.1399257 C206.227549,16.0279234 206.856109,17.0707343 207.303548,18.2676883 C207.751658,19.463972 207.975042,20.7453695 207.975042,22.1112105 C207.975042,23.4770516 207.748304,24.7611298 207.294157,25.9641154 C206.841351,27.167101 206.21212,28.2152734 205.407132,29.1093028 C204.602816,30.0040024 203.650248,30.7083689 202.548757,31.2217321 C201.448607,31.7357655 200.24448,31.9924471 198.937047,31.9924471 C198.260187,31.9924471 197.606805,31.9080036 196.977574,31.7384463 C196.348342,31.5695592 195.761372,31.3276217 195.217335,31.013304 C194.672627,30.6996565 194.180243,30.3243518 193.7375,29.8894004 C193.296098,29.4544491 192.918425,28.9645424 192.603809,28.4210208 L192.69437,30.5783526 L192.69437,37.7942557 L188.302494,37.7942557 L188.302494,12.7915906 Z" id="Fill-13" fill="#FFFFFF"></path>
                <path d="M218.207168,31.4304284 C217.504817,31.4304284 216.788378,31.3486655 216.05651,31.1858101 C215.323972,31.0229547 214.659187,30.6905419 214.059471,30.1885719 C213.461097,29.6866019 212.970726,28.9708422 212.590369,28.0399525 C212.209342,27.1090628 212.018158,25.876589 212.018158,24.3411906 L212.018158,16.5630007 L208.152877,16.5630007 L208.152877,12.7918586 L212.018158,12.7918586 L212.018158,7.33452616 L216.410034,7.29833607 L216.410034,12.7918586 L222,12.7918586 L222,16.5630007 L216.410034,16.5630007 L216.410034,24.5409063 C216.410034,25.1936684 216.485837,25.7284776 216.636772,26.1453339 C216.788378,26.5621902 216.988283,26.894603 217.235817,27.1425721 C217.484021,27.3905413 217.771804,27.5594284 218.097824,27.6499037 C218.424515,27.7410491 218.76328,27.7866218 219.114791,27.7866218 L222,27.7866218 L222,31.4304284 L218.207168,31.4304284 Z" id="Fill-14" fill="#FFFFFF"></path>
                <polygon id="Fill-15" fill="#FFFFFF" points="73.7250298 9.59345835 78.1169063 9.59345835 78.1169063 5.20574428 73.7250298 5.20574428"></polygon>
                <polygon id="Fill-16" fill="#FFFFFF" points="179.70362 9.59345835 184.095496 9.59345835 184.095496 5.20574428 179.70362 5.20574428"></polygon>
                <polygon id="Fill-17" fill="#0F62FE" points="10.2645272 31.7550669 5.13273316 26.6274664 10.2645272 21.5005361 15.3963212 26.6274664"></polygon>
                <polygon id="Fill-18" fill="#0043CE" points="15.3965895 36.8821983 10.2647955 31.755268 15.3965895 26.6276675 20.5283835 31.755268"></polygon>
                <polygon id="Fill-19" fill="#4589FF" points="5.13246483 26.6275335 0 21.5006032 5.13246483 16.3730027 10.2642588 21.5006032"></polygon>
                <polygon id="Fill-20" fill="#78A9FF" points="10.2645272 21.5003351 5.13273316 16.3734048 10.2645272 11.2458043 15.3963212 16.3734048"></polygon>
                <polygon id="Fill-21" fill="#A6C8FF" points="15.3965895 16.3731367 10.2647955 11.2462064 15.3965895 6.11860595 20.5283835 11.2462064"></polygon>
                <polygon id="Fill-22" fill="#0043CE" points="18.4585599 39.9412667 15.3969249 43 12.3346191 39.9412667 15.3969249 36.8825334"></polygon>
                <polygon id="Fill-23" fill="#33B1FF" points="30.7927765 11.2449331 35.9245705 16.3725336 30.7927765 21.4994639 25.6609825 16.3725336"></polygon>
                <polygon id="Fill-24" fill="#82CFFF" points="25.6607142 6.11780172 30.7925082 11.244732 25.6607142 16.3723325 20.5289202 11.244732"></polygon>
                <polygon id="Fill-25" fill="#1192E8" points="35.9248388 16.3724665 41.0566329 21.4993968 35.9248388 26.6269973 30.7930448 21.4993968"></polygon>
                <polygon id="Fill-26" fill="#0072C3" points="30.7927765 21.4996649 35.9245705 26.6265952 30.7927765 31.7541957 25.6609825 26.6265952"></polygon>
                <polygon id="Fill-27" fill="#00539A" points="25.6607142 26.6268633 30.7925082 31.7537936 25.6607142 36.8813941 20.5289202 31.7537936"></polygon>
                <polygon id="Fill-28" fill="#82CFFF" points="22.5987437 3.05873332 25.6603788 0 28.7226846 3.05873332 25.6603788 6.11746663"></polygon>
            </g>
        </g>
    </g>
</svg>