<svg width="601" height="440" viewBox="0 0 601 440" fill="none" xmlns="http://www.w3.org/2000/svg">
<rect x="1" y="100" width="600" height="240" fill="#F1F5F9"/>
<g clip-path="url(#clip0_5_34)">
<mask id="mask0_5_34" style="mask-type:alpha" maskUnits="userSpaceOnUse" x="0" y="100" width="1921" height="866">
<rect x="0.000114441" y="100" width="1920" height="866" fill="url(#paint0_linear_5_34)"/>
</mask>
<g mask="url(#mask0_5_34)">
<line y1="-0.5" x2="1929" y2="-0.5" transform="matrix(-0.866026 0.5 -0.866025 -0.5 942.32 -445)" stroke="#B5CBEF"/>
<line y1="-0.5" x2="1929" y2="-0.5" transform="matrix(-0.866025 0.5 -0.866025 -0.5 1001.21 -411)" stroke="#B5CBEF"/>
<line y1="-0.5" x2="1929" y2="-0.5" transform="matrix(-0.866025 0.5 -0.866025 -0.5 1060.1 -377)" stroke="#B5CBEF"/>
<line y1="-0.5" x2="1929" y2="-0.5" transform="matrix(-0.866026 0.5 -0.866025 -0.5 1118.99 -343)" stroke="#B5CBEF"/>
<line y1="-0.5" x2="1929" y2="-0.5" transform="matrix(-0.866026 0.5 -0.866025 -0.5 1177.88 -309)" stroke="#B5CBEF"/>
<line y1="-0.5" x2="1929" y2="-0.5" transform="matrix(-0.866026 0.5 -0.866025 -0.5 1236.77 -275)" stroke="#B5CBEF"/>
<line y1="-0.5" x2="1929" y2="-0.5" transform="matrix(-0.866025 0.5 -0.866025 -0.5 1295.66 -241)" stroke="#B5CBEF"/>
<line y1="-0.5" x2="1929" y2="-0.5" transform="matrix(-0.866026 0.5 -0.866025 -0.5 1354.55 -207)" stroke="#B5CBEF"/>
<line y1="-0.5" x2="1929" y2="-0.5" transform="matrix(-0.866026 0.5 -0.866025 -0.5 1413.44 -173)" stroke="#B5CBEF"/>
<line y1="-0.5" x2="1929" y2="-0.5" transform="matrix(-0.866026 0.5 -0.866025 -0.5 1472.33 -139)" stroke="#B5CBEF"/>
<line y1="-0.5" x2="1929" y2="-0.5" transform="matrix(-0.866025 0.5 -0.866025 -0.5 1531.22 -105)" stroke="#B5CBEF"/>
<line y1="-0.5" x2="1929" y2="-0.5" transform="matrix(-0.866025 0.5 -0.866025 -0.5 1590.11 -70.9997)" stroke="#B5CBEF"/>
<line y1="-0.5" x2="1929" y2="-0.5" transform="matrix(-0.866026 0.5 -0.866025 -0.5 1649 -36.9996)" stroke="#B5CBEF"/>
<line y1="-0.5" x2="1929" y2="-0.5" transform="matrix(-0.866026 0.5 -0.866025 -0.5 1707.89 -2.9996)" stroke="#B5CBEF"/>
<line y1="-0.5" x2="1929" y2="-0.5" transform="matrix(-0.866026 0.5 -0.866025 -0.5 1766.78 31.0004)" stroke="#B5CBEF"/>
<line y1="-0.5" x2="1929" y2="-0.5" transform="matrix(-0.866025 0.5 -0.866025 -0.5 1825.67 65.0004)" stroke="#B5CBEF"/>
<line y1="-0.5" x2="1929" y2="-0.5" transform="matrix(-0.866026 0.5 -0.866025 -0.5 1884.56 99.0005)" stroke="#B5CBEF"/>
<line y1="-0.5" x2="1929" y2="-0.5" transform="matrix(-0.866026 0.5 -0.866025 -0.5 1943.45 133.001)" stroke="#B5CBEF"/>
<line y1="-0.5" x2="1929" y2="-0.5" transform="matrix(-0.866026 0.5 -0.866025 -0.5 2002.34 167.001)" stroke="#B5CBEF"/>
<line y1="-0.5" x2="1929" y2="-0.5" transform="matrix(-0.866025 0.5 -0.866025 -0.5 2061.23 201.001)" stroke="#B5CBEF"/>
<line y1="-0.5" x2="1929" y2="-0.5" transform="matrix(-0.866025 0.5 -0.866025 -0.5 2120.12 235.001)" stroke="#B5CBEF"/>
<line y1="-0.5" x2="1929" y2="-0.5" transform="matrix(-0.866026 0.5 -0.866025 -0.5 2179.01 269.001)" stroke="#B5CBEF"/>
<line y1="-0.5" x2="1929" y2="-0.5" transform="matrix(-0.866026 0.5 -0.866025 -0.5 2237.9 303.001)" stroke="#B5CBEF"/>
<line y1="-0.5" x2="2001" y2="-0.5" transform="matrix(0.866025 0.5 -0.866025 0.5 -368.41 312.751)" stroke="#B5CBEF"/>
<line y1="-0.5" x2="2001" y2="-0.5" transform="matrix(0.866025 0.5 -0.866025 0.5 -308.655 278.251)" stroke="#B5CBEF"/>
<line y1="-0.5" x2="2001" y2="-0.5" transform="matrix(0.866025 0.5 -0.866025 0.5 -248.899 243.751)" stroke="#B5CBEF"/>
<line y1="-0.5" x2="2001" y2="-0.5" transform="matrix(0.866025 0.5 -0.866025 0.5 -189.143 209.251)" stroke="#B5CBEF"/>
<line y1="-0.5" x2="2001" y2="-0.5" transform="matrix(0.866025 0.5 -0.866025 0.5 -129.387 174.751)" stroke="#B5CBEF"/>
<line y1="-0.5" x2="2001" y2="-0.5" transform="matrix(0.866025 0.5 -0.866025 0.5 -69.6315 140.251)" stroke="#B5CBEF"/>
<line y1="-0.5" x2="2001" y2="-0.5" transform="matrix(0.866025 0.5 -0.866025 0.5 -9.87577 105.751)" stroke="#B5CBEF"/>
<line y1="-0.5" x2="2001" y2="-0.5" transform="matrix(0.866025 0.5 -0.866025 0.5 49.88 71.2508)" stroke="#B5CBEF"/>
<line y1="-0.5" x2="2001" y2="-0.5" transform="matrix(0.866025 0.5 -0.866025 0.5 109.636 36.7508)" stroke="#B5CBEF"/>
<line y1="-0.5" x2="2001" y2="-0.5" transform="matrix(0.866025 0.5 -0.866025 0.5 169.392 2.2507)" stroke="#B5CBEF"/>
<line y1="-0.5" x2="2001" y2="-0.5" transform="matrix(0.866025 0.5 -0.866025 0.5 229.147 -32.2492)" stroke="#B5CBEF"/>
<line y1="-0.5" x2="2001" y2="-0.5" transform="matrix(0.866025 0.5 -0.866025 0.5 288.903 -66.7492)" stroke="#B5CBEF"/>
<line y1="-0.5" x2="2001" y2="-0.5" transform="matrix(0.866025 0.5 -0.866025 0.5 348.659 -101.249)" stroke="#B5CBEF"/>
<line y1="-0.5" x2="2001" y2="-0.5" transform="matrix(0.866025 0.5 -0.866025 0.5 408.415 -135.749)" stroke="#B5CBEF"/>
<line y1="-0.5" x2="2001" y2="-0.5" transform="matrix(0.866025 0.5 -0.866025 0.5 468.17 -170.249)" stroke="#B5CBEF"/>
<line y1="-0.5" x2="2001" y2="-0.5" transform="matrix(0.866025 0.5 -0.866025 0.5 527.926 -204.749)" stroke="#B5CBEF"/>
<line y1="-0.5" x2="2001" y2="-0.5" transform="matrix(0.866025 0.5 -0.866025 0.5 587.682 -239.249)" stroke="#B5CBEF"/>
</g>
</g>
<g filter="url(#filter0_f_5_34)">
<ellipse cx="300" cy="220" rx="200" ry="120" fill="white"/>
</g>
<mask id="path-44-inside-1_5_34" fill="white">
<path d="M300.631 200.113L372.963 241.875L300.631 283.636L228.298 241.875L300.631 200.113Z"/>
</mask>
<path d="M300.631 200.113L372.963 241.875L300.631 283.636L228.298 241.875L300.631 200.113Z" fill="#9FADCC"/>
<path d="M300.631 200.113L304.384 197.947L300.631 195.78L296.878 197.947L300.631 200.113ZM296.878 202.28L369.21 244.042L376.716 239.708L304.384 197.947L296.878 202.28ZM232.051 244.042L304.384 202.28L296.878 197.947L224.545 239.708L232.051 244.042Z" fill="#CAD4E8" mask="url(#path-44-inside-1_5_34)"/>
<mask id="path-46-inside-2_5_34" fill="white">
<path d="M300.631 200.113L372.963 241.875L300.631 283.636L228.298 241.875L300.631 200.113Z"/>
</mask>
<path d="M300.631 200.113L372.963 241.875L300.631 283.636L228.298 241.875L300.631 200.113Z" fill="#7197D6"/>
<path d="M300.631 200.113L305.635 197.224L300.631 194.335L295.627 197.224L300.631 200.113ZM295.627 203.003L367.959 244.764L377.967 238.986L305.635 197.224L295.627 203.003ZM233.302 244.764L305.635 203.003L295.627 197.224L223.294 238.986L233.302 244.764Z" fill="#D4E4FE" mask="url(#path-46-inside-2_5_34)"/>
<path d="M300.566 194.685L362.409 230.39L300.566 266.096L238.722 230.39L300.566 194.685Z" fill="white"/>
<rect width="58.4337" height="58.4337" transform="matrix(0.866025 0.5 -0.866025 0.5 300.566 201.173)" fill="white"/>
<rect x="-4.30507e-08" y="0.722271" width="56.9892" height="56.9892" transform="matrix(0.866025 0.5 -0.866025 0.5 301.191 201.534)" stroke="#CFE2FF" stroke-opacity="0.35" stroke-width="1.44454"/>
<g filter="url(#filter1_f_5_34)">
<ellipse cx="300.457" cy="234.174" rx="16.743" ry="11.7161" transform="rotate(30 300.457 234.174)" fill="#3284FF"/>
</g>
<path d="M238.722 238.928L300.546 274.622V283.643L238.722 247.949L238.722 238.928Z" fill="url(#paint1_linear_5_34)"/>
<path d="M362.37 238.928L300.546 274.622V283.643L362.37 247.949V238.928Z" fill="url(#paint2_linear_5_34)"/>
<path d="M238.722 230.189L300.546 265.883V274.904L238.722 239.21L238.722 230.189Z" fill="url(#paint3_linear_5_34)"/>
<path d="M238.722 230.189L300.546 265.883V274.904L238.722 239.21L238.722 230.189Z" fill="white" fill-opacity="0.58"/>
<path d="M362.37 230.189L300.546 265.883V274.904L362.37 239.21V230.189Z" fill="url(#paint4_linear_5_34)"/>
<path d="M362.37 230.189L300.546 265.883V274.904L362.37 239.21V230.189Z" fill="white" fill-opacity="0.58"/>
<g filter="url(#filter2_i_5_34)">
<rect width="45.9373" height="45.9373" transform="matrix(0.866025 0.5 -0.866025 0.5 301.685 195.937)" fill="#3284FF" fill-opacity="0.05"/>
</g>
<g filter="url(#filter3_bii_5_34)">
<rect width="45.9373" height="45.9373" transform="matrix(0.866025 0.5 -2.20305e-08 1 301.576 150)" fill="url(#paint5_linear_5_34)" fill-opacity="0.25"/>
<rect width="45.9373" height="45.9373" transform="matrix(0.866025 0.5 -2.20305e-08 1 301.576 150)" stroke="url(#paint6_linear_5_34)" stroke-width="1.25101" stroke-linejoin="bevel"/>
</g>
<path d="M319.687 201.937C319.687 202.286 319.549 202.619 319.303 202.866C319.057 203.112 318.723 203.25 318.375 203.25H315.75V205.875C315.75 206.223 315.612 206.557 315.366 206.803C315.119 207.049 314.786 207.187 314.437 207.187C314.089 207.187 313.756 207.049 313.509 206.803C313.263 206.557 313.125 206.223 313.125 205.875V203.25H310.5C310.152 203.25 309.818 203.112 309.572 202.866C309.326 202.619 309.187 202.286 309.187 201.937C309.187 201.589 309.326 201.256 309.572 201.009C309.818 200.763 310.152 200.625 310.5 200.625H313.125V198C313.125 197.652 313.263 197.318 313.509 197.072C313.756 196.826 314.089 196.687 314.437 196.687C314.786 196.687 315.119 196.826 315.366 197.072C315.612 197.318 315.75 197.652 315.75 198V200.625H318.375C318.723 200.625 319.057 200.763 319.303 201.009C319.549 201.256 319.687 201.589 319.687 201.937ZM289.5 188.156H291.469V190.125C291.469 190.473 291.607 190.807 291.853 191.053C292.099 191.299 292.433 191.437 292.781 191.437C293.129 191.437 293.463 191.299 293.709 191.053C293.955 190.807 294.094 190.473 294.094 190.125V188.156H296.062C296.411 188.156 296.744 188.018 296.991 187.772C297.237 187.526 297.375 187.192 297.375 186.844C297.375 186.496 297.237 186.162 296.991 185.916C296.744 185.67 296.411 185.531 296.062 185.531H294.094V183.562C294.094 183.214 293.955 182.881 293.709 182.634C293.463 182.388 293.129 182.25 292.781 182.25C292.433 182.25 292.099 182.388 291.853 182.634C291.607 182.881 291.469 183.214 291.469 183.562V185.531H289.5C289.152 185.531 288.818 185.67 288.572 185.916C288.326 186.162 288.187 186.496 288.187 186.844C288.187 187.192 288.326 187.526 288.572 187.772C288.818 188.018 289.152 188.156 289.5 188.156ZM309.187 208.5H307.875V207.187C307.875 206.839 307.737 206.506 307.491 206.259C307.244 206.013 306.911 205.875 306.562 205.875C306.214 205.875 305.881 206.013 305.634 206.259C305.388 206.506 305.25 206.839 305.25 207.187V208.5H303.937C303.589 208.5 303.256 208.638 303.009 208.884C302.763 209.131 302.625 209.464 302.625 209.812C302.625 210.161 302.763 210.494 303.009 210.741C303.256 210.987 303.589 211.125 303.937 211.125H305.25V212.437C305.25 212.786 305.388 213.119 305.634 213.366C305.881 213.612 306.214 213.75 306.562 213.75C306.911 213.75 307.244 213.612 307.491 213.366C307.737 213.119 307.875 212.786 307.875 212.437V211.125H309.187C309.536 211.125 309.869 210.987 310.116 210.741C310.362 210.494 310.5 210.161 310.5 209.812C310.5 209.464 310.362 209.131 310.116 208.884C309.869 208.638 309.536 208.5 309.187 208.5ZM308.81 196.31L291.354 213.75C291.111 213.995 290.823 214.19 290.504 214.322C290.186 214.455 289.845 214.523 289.5 214.523C289.155 214.523 288.814 214.455 288.496 214.322C288.177 214.19 287.889 213.995 287.646 213.75L284.25 210.354C284.005 210.111 283.81 209.823 283.678 209.504C283.545 209.186 283.477 208.845 283.477 208.5C283.477 208.155 283.545 207.814 283.678 207.496C283.81 207.177 284.005 206.889 284.25 206.646L308.646 182.25C309.14 181.763 309.806 181.49 310.5 181.49C311.194 181.49 311.86 181.763 312.354 182.25L315.75 185.646C315.995 185.889 316.19 186.177 316.322 186.496C316.455 186.814 316.523 187.155 316.523 187.5C316.523 187.845 316.455 188.186 316.322 188.504C316.19 188.823 315.995 189.111 315.75 189.354L308.81 196.31V196.31ZM304.479 190.125L307.875 193.521L313.896 187.5L310.5 184.104L304.479 190.125Z" fill="#0F62FE"/>
<g filter="url(#filter4_b_5_34)">
<rect width="45.9373" height="45.9373" transform="matrix(0.866025 0.5 -2.20305e-08 1 261.902 172.969)" fill="url(#paint7_linear_5_34)" fill-opacity="0.2"/>
<rect width="45.9373" height="45.9373" transform="matrix(0.866025 0.5 -2.20305e-08 1 261.902 172.969)" stroke="url(#paint8_linear_5_34)" stroke-width="2" stroke-linejoin="bevel"/>
</g>
<g filter="url(#filter5_b_5_34)">
<rect width="45.9373" height="45.9373" transform="matrix(-0.866025 0.5 2.20305e-08 1 341.421 172.969)" fill="url(#paint9_linear_5_34)" fill-opacity="0.3"/>
<rect width="45.9373" height="45.9373" transform="matrix(-0.866025 0.5 2.20305e-08 1 341.421 172.969)" fill="url(#paint10_radial_5_34)" fill-opacity="0.59"/>
<rect width="45.9373" height="45.9373" transform="matrix(-0.866025 0.5 2.20305e-08 1 341.421 172.969)" stroke="url(#paint11_linear_5_34)" stroke-width="2" stroke-linejoin="bevel"/>
</g>
<g filter="url(#filter6_b_5_34)">
<rect width="45.9373" height="45.9373" transform="matrix(0.866025 0.5 -0.866025 0.5 301.686 150)" fill="url(#paint12_linear_5_34)" fill-opacity="0.2"/>
<rect width="45.9373" height="45.9373" transform="matrix(0.866025 0.5 -0.866025 0.5 301.686 150)" stroke="url(#paint13_linear_5_34)" stroke-width="2" stroke-linejoin="bevel"/>
</g>
<path d="M342.741 177.983C350.437 179.684 355.44 182.842 357.118 187.058C358.796 191.275 357.073 196.36 352.166 201.67C347.26 206.98 339.391 212.278 329.555 216.893C319.718 221.507 308.356 225.232 296.905 227.595C285.454 229.959 274.428 230.855 265.222 230.17C256.015 229.486 249.042 227.252 245.184 223.75C241.326 220.249 240.756 215.637 243.546 210.498C246.337 205.36 252.362 199.925 260.86 194.882L261.644 195.055C253.317 199.997 247.414 205.322 244.68 210.357C241.946 215.392 242.504 219.911 246.284 223.342C250.065 226.773 256.897 228.962 265.918 229.632C274.939 230.303 285.742 229.425 296.963 227.109C308.183 224.793 319.316 221.144 328.955 216.622C338.593 212.101 346.303 206.91 351.11 201.707C355.918 196.503 357.606 191.521 355.962 187.389C354.318 183.258 349.416 180.163 341.875 178.497L342.741 177.983Z" fill="url(#paint14_linear_5_34)"/>
<circle cx="233.315" cy="215.625" r="3.75851" fill="#0F62FE"/>
<circle cx="360.582" cy="172.903" r="2.08806" fill="#33B1FF"/>
<defs>
<filter id="filter0_f_5_34" x="0" y="0" width="600" height="440" filterUnits="userSpaceOnUse" color-interpolation-filters="sRGB">
<feFlood flood-opacity="0" result="BackgroundImageFix"/>
<feBlend mode="normal" in="SourceGraphic" in2="BackgroundImageFix" result="shape"/>
<feGaussianBlur stdDeviation="50" result="effect1_foregroundBlur_5_34"/>
</filter>
<filter id="filter1_f_5_34" x="229.2" y="165.405" width="142.515" height="137.539" filterUnits="userSpaceOnUse" color-interpolation-filters="sRGB">
<feFlood flood-opacity="0" result="BackgroundImageFix"/>
<feBlend mode="normal" in="SourceGraphic" in2="BackgroundImageFix" result="shape"/>
<feGaussianBlur stdDeviation="27.8074" result="effect1_foregroundBlur_5_34"/>
</filter>
<filter id="filter2_i_5_34" x="261.902" y="195.937" width="79.5658" height="45.9373" filterUnits="userSpaceOnUse" color-interpolation-filters="sRGB">
<feFlood flood-opacity="0" result="BackgroundImageFix"/>
<feBlend mode="normal" in="SourceGraphic" in2="BackgroundImageFix" result="shape"/>
<feColorMatrix in="SourceAlpha" type="matrix" values="0 0 0 0 0 0 0 0 0 0 0 0 0 0 0 0 0 0 127 0" result="hardAlpha"/>
<feOffset/>
<feGaussianBlur stdDeviation="3.44028"/>
<feComposite in2="hardAlpha" operator="arithmetic" k2="-1" k3="1"/>
<feColorMatrix type="matrix" values="0 0 0 0 1 0 0 0 0 1 0 0 0 0 1 0 0 0 1 0"/>
<feBlend mode="normal" in2="shape" result="effect1_innerShadow_5_34"/>
</filter>
<filter id="filter3_bii_5_34" x="296.7" y="145.041" width="49.5336" height="78.8243" filterUnits="userSpaceOnUse" color-interpolation-filters="sRGB">
<feFlood flood-opacity="0" result="BackgroundImageFix"/>
<feGaussianBlur in="BackgroundImage" stdDeviation="2.16681"/>
<feComposite in2="SourceAlpha" operator="in" result="effect1_backgroundBlur_5_34"/>
<feBlend mode="normal" in="SourceGraphic" in2="effect1_backgroundBlur_5_34" result="shape"/>
<feColorMatrix in="SourceAlpha" type="matrix" values="0 0 0 0 0 0 0 0 0 0 0 0 0 0 0 0 0 0 127 0" result="hardAlpha"/>
<feOffset/>
<feGaussianBlur stdDeviation="4.33363"/>
<feComposite in2="hardAlpha" operator="arithmetic" k2="-1" k3="1"/>
<feColorMatrix type="matrix" values="0 0 0 0 1 0 0 0 0 1 0 0 0 0 1 0 0 0 1 0"/>
<feBlend mode="normal" in2="shape" result="effect2_innerShadow_5_34"/>
<feColorMatrix in="SourceAlpha" type="matrix" values="0 0 0 0 0 0 0 0 0 0 0 0 0 0 0 0 0 0 127 0" result="hardAlpha"/>
<feOffset/>
<feGaussianBlur stdDeviation="4.33363"/>
<feComposite in2="hardAlpha" operator="arithmetic" k2="-1" k3="1"/>
<feColorMatrix type="matrix" values="0 0 0 0 1 0 0 0 0 1 0 0 0 0 1 0 0 0 1 0"/>
<feBlend mode="normal" in2="effect2_innerShadow_5_34" result="effect3_innerShadow_5_34"/>
</filter>
<filter id="filter4_b_5_34" x="258.036" y="168.969" width="47.515" height="76.906" filterUnits="userSpaceOnUse" color-interpolation-filters="sRGB">
<feFlood flood-opacity="0" result="BackgroundImageFix"/>
<feGaussianBlur in="BackgroundImage" stdDeviation="1.5"/>
<feComposite in2="SourceAlpha" operator="in" result="effect1_backgroundBlur_5_34"/>
<feBlend mode="normal" in="SourceGraphic" in2="effect1_backgroundBlur_5_34" result="shape"/>
</filter>
<filter id="filter5_b_5_34" x="297.772" y="168.969" width="47.515" height="76.906" filterUnits="userSpaceOnUse" color-interpolation-filters="sRGB">
<feFlood flood-opacity="0" result="BackgroundImageFix"/>
<feGaussianBlur in="BackgroundImage" stdDeviation="1.5"/>
<feComposite in2="SourceAlpha" operator="in" result="effect1_backgroundBlur_5_34"/>
<feBlend mode="normal" in="SourceGraphic" in2="effect1_backgroundBlur_5_34" result="shape"/>
</filter>
<filter id="filter6_b_5_34" x="258.037" y="146.5" width="87.2979" height="52.9373" filterUnits="userSpaceOnUse" color-interpolation-filters="sRGB">
<feFlood flood-opacity="0" result="BackgroundImageFix"/>
<feGaussianBlur in="BackgroundImage" stdDeviation="1.5"/>
<feComposite in2="SourceAlpha" operator="in" result="effect1_backgroundBlur_5_34"/>
<feBlend mode="normal" in="SourceGraphic" in2="effect1_backgroundBlur_5_34" result="shape"/>
</filter>
<linearGradient id="paint0_linear_5_34" x1="960" y1="100" x2="960" y2="966" gradientUnits="userSpaceOnUse">
<stop stop-color="#C4C4C4" stop-opacity="0"/>
<stop offset="0.526042" stop-color="#C4C4C4"/>
<stop offset="1" stop-color="#C4C4C4" stop-opacity="0"/>
</linearGradient>
<linearGradient id="paint1_linear_5_34" x1="240.2" y1="261.085" x2="362.355" y2="261.161" gradientUnits="userSpaceOnUse">
<stop stop-color="#F4F8FF"/>
<stop offset="0.494792" stop-color="#9BC3FF"/>
<stop offset="0.494892" stop-color="#E8F0FF"/>
<stop offset="1" stop-color="#EFF3FF"/>
</linearGradient>
<linearGradient id="paint2_linear_5_34" x1="240.2" y1="261.085" x2="362.355" y2="261.161" gradientUnits="userSpaceOnUse">
<stop stop-color="#F4F8FF"/>
<stop offset="0.494792" stop-color="#9BC3FF"/>
<stop offset="0.494892" stop-color="#E8F0FF"/>
<stop offset="1" stop-color="#EFF3FF"/>
</linearGradient>
<linearGradient id="paint3_linear_5_34" x1="240.2" y1="252.345" x2="362.355" y2="252.422" gradientUnits="userSpaceOnUse">
<stop stop-color="#F4F8FF"/>
<stop offset="0.494792" stop-color="#9BC3FF"/>
<stop offset="0.494892" stop-color="#E8F0FF"/>
<stop offset="1" stop-color="#EFF3FF"/>
</linearGradient>
<linearGradient id="paint4_linear_5_34" x1="240.2" y1="252.345" x2="362.355" y2="252.422" gradientUnits="userSpaceOnUse">
<stop stop-color="#F4F8FF"/>
<stop offset="0.494792" stop-color="#9BC3FF"/>
<stop offset="0.494892" stop-color="#E8F0FF"/>
<stop offset="1" stop-color="#EFF3FF"/>
</linearGradient>
<linearGradient id="paint5_linear_5_34" x1="22.9687" y1="0" x2="22.9687" y2="45.9373" gradientUnits="userSpaceOnUse">
<stop stop-color="#325FFF" stop-opacity="0.31"/>
<stop offset="1" stop-color="#005CE7"/>
</linearGradient>
<linearGradient id="paint6_linear_5_34" x1="45.8106" y1="0.0633579" x2="36.8912" y2="-0.816731" gradientUnits="userSpaceOnUse">
<stop stop-color="white"/>
<stop offset="1" stop-color="white" stop-opacity="0"/>
</linearGradient>
<linearGradient id="paint7_linear_5_34" x1="6.50993" y1="4.05325" x2="28.3896" y2="51.8515" gradientUnits="userSpaceOnUse">
<stop stop-color="#32DAFF"/>
<stop offset="0.494792" stop-color="#3284FF"/>
<stop offset="1" stop-color="#B7FFFB"/>
</linearGradient>
<linearGradient id="paint8_linear_5_34" x1="45.8106" y1="0.0633547" x2="32.9313" y2="33.4987" gradientUnits="userSpaceOnUse">
<stop stop-color="white"/>
<stop offset="1" stop-color="white" stop-opacity="0"/>
</linearGradient>
<linearGradient id="paint9_linear_5_34" x1="14.4246" y1="17.0092" x2="38.6055" y2="55.7941" gradientUnits="userSpaceOnUse">
<stop offset="0.557292" stop-color="#3284FF"/>
<stop offset="1" stop-color="#32DAFF"/>
</linearGradient>
<radialGradient id="paint10_radial_5_34" cx="0" cy="0" r="1" gradientUnits="userSpaceOnUse" gradientTransform="translate(28.65 44.9759) rotate(-158.782) scale(10.087 13.4902)">
<stop stop-color="#CBFCFF"/>
<stop offset="1" stop-color="white" stop-opacity="0.17"/>
</radialGradient>
<linearGradient id="paint11_linear_5_34" x1="45.8106" y1="0.0633549" x2="26.4146" y2="15.8726" gradientUnits="userSpaceOnUse">
<stop stop-color="white"/>
<stop offset="1" stop-color="white" stop-opacity="0"/>
</linearGradient>
<linearGradient id="paint12_linear_5_34" x1="33.397" y1="46.7846" x2="43.4789" y2="-0.661131" gradientUnits="userSpaceOnUse">
<stop stop-color="#32DAFF"/>
<stop offset="1" stop-color="#3284FF"/>
</linearGradient>
<linearGradient id="paint13_linear_5_34" x1="45.874" y1="46.0007" x2="29.9205" y2="32.5384" gradientUnits="userSpaceOnUse">
<stop stop-color="white"/>
<stop offset="1" stop-color="white" stop-opacity="0"/>
</linearGradient>
<linearGradient id="paint14_linear_5_34" x1="238.987" y1="207.298" x2="373.231" y2="174.409" gradientUnits="userSpaceOnUse">
<stop stop-color="#0F62FE"/>
<stop offset="0.15625" stop-color="white"/>
<stop offset="0.661458" stop-color="white"/>
<stop offset="1" stop-color="#33B1FF"/>
</linearGradient>
<clipPath id="clip0_5_34">
<rect width="600" height="240" fill="white" transform="translate(0 100)"/>
</clipPath>
</defs>
</svg>
