<svg width="601" height="440" viewBox="0 0 601 440" fill="none" xmlns="http://www.w3.org/2000/svg">
<rect x="1" y="100" width="600" height="240" fill="#F1F5F9"/>
<g clip-path="url(#clip0_5_48)">
<mask id="mask0_5_48" style="mask-type:alpha" maskUnits="userSpaceOnUse" x="1" y="100" width="1921" height="866">
<rect x="1.00012" y="100" width="1920" height="866" fill="url(#paint0_linear_5_48)"/>
</mask>
<g mask="url(#mask0_5_48)">
<line y1="-0.5" x2="1929" y2="-0.5" transform="matrix(-0.866026 0.5 -0.866025 -0.5 943.32 -445)" stroke="#B5CBEF"/>
<line y1="-0.5" x2="1929" y2="-0.5" transform="matrix(-0.866025 0.5 -0.866025 -0.5 1002.21 -411)" stroke="#B5CBEF"/>
<line y1="-0.5" x2="1929" y2="-0.5" transform="matrix(-0.866025 0.5 -0.866025 -0.5 1061.1 -377)" stroke="#B5CBEF"/>
<line y1="-0.5" x2="1929" y2="-0.5" transform="matrix(-0.866026 0.5 -0.866025 -0.5 1119.99 -343)" stroke="#B5CBEF"/>
<line y1="-0.5" x2="1929" y2="-0.5" transform="matrix(-0.866026 0.5 -0.866025 -0.5 1178.88 -309)" stroke="#B5CBEF"/>
<line y1="-0.5" x2="1929" y2="-0.5" transform="matrix(-0.866026 0.5 -0.866025 -0.5 1237.77 -275)" stroke="#B5CBEF"/>
<line y1="-0.5" x2="1929" y2="-0.5" transform="matrix(-0.866025 0.5 -0.866025 -0.5 1296.66 -241)" stroke="#B5CBEF"/>
<line y1="-0.5" x2="1929" y2="-0.5" transform="matrix(-0.866026 0.5 -0.866025 -0.5 1355.55 -207)" stroke="#B5CBEF"/>
<line y1="-0.5" x2="1929" y2="-0.5" transform="matrix(-0.866026 0.5 -0.866025 -0.5 1414.44 -173)" stroke="#B5CBEF"/>
<line y1="-0.5" x2="1929" y2="-0.5" transform="matrix(-0.866026 0.5 -0.866025 -0.5 1473.33 -139)" stroke="#B5CBEF"/>
<line y1="-0.5" x2="1929" y2="-0.5" transform="matrix(-0.866025 0.5 -0.866025 -0.5 1532.22 -105)" stroke="#B5CBEF"/>
<line y1="-0.5" x2="1929" y2="-0.5" transform="matrix(-0.866025 0.5 -0.866025 -0.5 1591.11 -70.9997)" stroke="#B5CBEF"/>
<line y1="-0.5" x2="1929" y2="-0.5" transform="matrix(-0.866026 0.5 -0.866025 -0.5 1650 -36.9996)" stroke="#B5CBEF"/>
<line y1="-0.5" x2="1929" y2="-0.5" transform="matrix(-0.866026 0.5 -0.866025 -0.5 1708.89 -2.9996)" stroke="#B5CBEF"/>
<line y1="-0.5" x2="1929" y2="-0.5" transform="matrix(-0.866026 0.5 -0.866025 -0.5 1767.78 31.0004)" stroke="#B5CBEF"/>
<line y1="-0.5" x2="1929" y2="-0.5" transform="matrix(-0.866025 0.5 -0.866025 -0.5 1826.67 65.0004)" stroke="#B5CBEF"/>
<line y1="-0.5" x2="1929" y2="-0.5" transform="matrix(-0.866026 0.5 -0.866025 -0.5 1885.56 99.0005)" stroke="#B5CBEF"/>
<line y1="-0.5" x2="1929" y2="-0.5" transform="matrix(-0.866026 0.5 -0.866025 -0.5 1944.45 133.001)" stroke="#B5CBEF"/>
<line y1="-0.5" x2="1929" y2="-0.5" transform="matrix(-0.866026 0.5 -0.866025 -0.5 2003.34 167.001)" stroke="#B5CBEF"/>
<line y1="-0.5" x2="1929" y2="-0.5" transform="matrix(-0.866025 0.5 -0.866025 -0.5 2062.23 201.001)" stroke="#B5CBEF"/>
<line y1="-0.5" x2="1929" y2="-0.5" transform="matrix(-0.866025 0.5 -0.866025 -0.5 2121.12 235.001)" stroke="#B5CBEF"/>
<line y1="-0.5" x2="1929" y2="-0.5" transform="matrix(-0.866026 0.5 -0.866025 -0.5 2180.01 269.001)" stroke="#B5CBEF"/>
<line y1="-0.5" x2="1929" y2="-0.5" transform="matrix(-0.866026 0.5 -0.866025 -0.5 2238.9 303.001)" stroke="#B5CBEF"/>
<line y1="-0.5" x2="2001" y2="-0.5" transform="matrix(0.866025 0.5 -0.866025 0.5 -367.41 312.751)" stroke="#B5CBEF"/>
<line y1="-0.5" x2="2001" y2="-0.5" transform="matrix(0.866025 0.5 -0.866025 0.5 -307.655 278.251)" stroke="#B5CBEF"/>
<line y1="-0.5" x2="2001" y2="-0.5" transform="matrix(0.866025 0.5 -0.866025 0.5 -247.899 243.751)" stroke="#B5CBEF"/>
<line y1="-0.5" x2="2001" y2="-0.5" transform="matrix(0.866025 0.5 -0.866025 0.5 -188.143 209.251)" stroke="#B5CBEF"/>
<line y1="-0.5" x2="2001" y2="-0.5" transform="matrix(0.866025 0.5 -0.866025 0.5 -128.387 174.751)" stroke="#B5CBEF"/>
<line y1="-0.5" x2="2001" y2="-0.5" transform="matrix(0.866025 0.5 -0.866025 0.5 -68.6316 140.251)" stroke="#B5CBEF"/>
<line y1="-0.5" x2="2001" y2="-0.5" transform="matrix(0.866025 0.5 -0.866025 0.5 -8.87579 105.751)" stroke="#B5CBEF"/>
<line y1="-0.5" x2="2001" y2="-0.5" transform="matrix(0.866025 0.5 -0.866025 0.5 50.8799 71.2508)" stroke="#B5CBEF"/>
<line y1="-0.5" x2="2001" y2="-0.5" transform="matrix(0.866025 0.5 -0.866025 0.5 110.636 36.7508)" stroke="#B5CBEF"/>
<line y1="-0.5" x2="2001" y2="-0.5" transform="matrix(0.866025 0.5 -0.866025 0.5 170.392 2.2507)" stroke="#B5CBEF"/>
<line y1="-0.5" x2="2001" y2="-0.5" transform="matrix(0.866025 0.5 -0.866025 0.5 230.147 -32.2492)" stroke="#B5CBEF"/>
<line y1="-0.5" x2="2001" y2="-0.5" transform="matrix(0.866025 0.5 -0.866025 0.5 289.903 -66.7492)" stroke="#B5CBEF"/>
<line y1="-0.5" x2="2001" y2="-0.5" transform="matrix(0.866025 0.5 -0.866025 0.5 349.659 -101.249)" stroke="#B5CBEF"/>
<line y1="-0.5" x2="2001" y2="-0.5" transform="matrix(0.866025 0.5 -0.866025 0.5 409.414 -135.749)" stroke="#B5CBEF"/>
<line y1="-0.5" x2="2001" y2="-0.5" transform="matrix(0.866025 0.5 -0.866025 0.5 469.17 -170.249)" stroke="#B5CBEF"/>
<line y1="-0.5" x2="2001" y2="-0.5" transform="matrix(0.866025 0.5 -0.866025 0.5 528.926 -204.749)" stroke="#B5CBEF"/>
<line y1="-0.5" x2="2001" y2="-0.5" transform="matrix(0.866025 0.5 -0.866025 0.5 588.682 -239.249)" stroke="#B5CBEF"/>
</g>
</g>
<g filter="url(#filter0_f_5_48)">
<ellipse cx="300" cy="220" rx="200" ry="120" fill="white"/>
</g>
<mask id="path-44-inside-1_5_48" fill="white">
<path d="M300.631 200.113L372.963 241.875L300.631 283.636L228.298 241.875L300.631 200.113Z"/>
</mask>
<path d="M300.631 200.113L372.963 241.875L300.631 283.636L228.298 241.875L300.631 200.113Z" fill="#9FADCC"/>
<path d="M300.631 200.113L304.384 197.947L300.631 195.78L296.878 197.947L300.631 200.113ZM296.878 202.28L369.21 244.042L376.716 239.708L304.384 197.947L296.878 202.28ZM232.051 244.042L304.384 202.28L296.878 197.947L224.545 239.708L232.051 244.042Z" fill="#CAD4E8" mask="url(#path-44-inside-1_5_48)"/>
<mask id="path-46-inside-2_5_48" fill="white">
<path d="M300.631 200.113L372.963 241.875L300.631 283.636L228.298 241.875L300.631 200.113Z"/>
</mask>
<path d="M300.631 200.113L372.963 241.875L300.631 283.636L228.298 241.875L300.631 200.113Z" fill="#7197D6"/>
<path d="M300.631 200.113L305.635 197.224L300.631 194.335L295.627 197.224L300.631 200.113ZM295.627 203.003L367.959 244.764L377.967 238.986L305.635 197.224L295.627 203.003ZM233.302 244.764L305.635 203.003L295.627 197.224L223.294 238.986L233.302 244.764Z" fill="#D4E4FE" mask="url(#path-46-inside-2_5_48)"/>
<path d="M300.566 194.685L362.409 230.39L300.566 266.096L238.722 230.39L300.566 194.685Z" fill="white"/>
<rect width="58.4337" height="58.4337" transform="matrix(0.866025 0.5 -0.866025 0.5 300.566 201.173)" fill="white"/>
<rect x="-4.30507e-08" y="0.722271" width="56.9892" height="56.9892" transform="matrix(0.866025 0.5 -0.866025 0.5 301.191 201.534)" stroke="#CFE2FF" stroke-opacity="0.35" stroke-width="1.44454"/>
<g filter="url(#filter1_f_5_48)">
<ellipse cx="300.457" cy="234.174" rx="16.743" ry="11.7161" transform="rotate(30 300.457 234.174)" fill="#3284FF"/>
</g>
<path d="M238.722 238.928L300.546 274.622V283.643L238.722 247.949L238.722 238.928Z" fill="url(#paint1_linear_5_48)"/>
<path d="M362.37 238.928L300.546 274.622V283.643L362.37 247.949V238.928Z" fill="url(#paint2_linear_5_48)"/>
<path d="M238.722 230.189L300.546 265.883V274.904L238.722 239.21L238.722 230.189Z" fill="url(#paint3_linear_5_48)"/>
<path d="M238.722 230.189L300.546 265.883V274.904L238.722 239.21L238.722 230.189Z" fill="white" fill-opacity="0.58"/>
<path d="M362.37 230.189L300.546 265.883V274.904L362.37 239.21V230.189Z" fill="url(#paint4_linear_5_48)"/>
<path d="M362.37 230.189L300.546 265.883V274.904L362.37 239.21V230.189Z" fill="white" fill-opacity="0.58"/>
<g filter="url(#filter2_i_5_48)">
<rect width="45.9373" height="45.9373" transform="matrix(0.866025 0.5 -0.866025 0.5 301.685 195.937)" fill="#3284FF" fill-opacity="0.05"/>
</g>
<g filter="url(#filter3_bii_5_48)">
<rect width="45.9373" height="45.9373" transform="matrix(0.866025 0.5 -2.20305e-08 1 301.576 150)" fill="url(#paint5_linear_5_48)" fill-opacity="0.25"/>
<rect width="45.9373" height="45.9373" transform="matrix(0.866025 0.5 -2.20305e-08 1 301.576 150)" stroke="url(#paint6_linear_5_48)" stroke-width="1.25101" stroke-linejoin="bevel"/>
</g>
<path d="M315.355 183.48H286.645C285.905 183.48 285.195 183.774 284.672 184.297C284.149 184.82 283.855 185.53 283.855 186.27V209.73C283.855 210.47 284.149 211.18 284.672 211.703C285.195 212.226 285.905 212.52 286.645 212.52H315.355C316.095 212.52 316.805 212.226 317.328 211.703C317.851 211.18 318.145 210.47 318.145 209.73V186.27C318.145 185.53 317.851 184.82 317.328 184.297C316.805 183.774 316.095 183.48 315.355 183.48V183.48ZM299.852 199.017L293.289 204.267C293.058 204.457 292.768 204.562 292.469 204.562C292.273 204.564 292.079 204.52 291.903 204.435C291.727 204.349 291.572 204.225 291.452 204.07C291.342 203.937 291.261 203.784 291.212 203.619C291.163 203.454 291.147 203.281 291.165 203.11C291.183 202.939 291.236 202.774 291.319 202.623C291.402 202.472 291.514 202.34 291.648 202.233L296.931 198L291.648 193.767C291.496 193.666 291.367 193.535 291.268 193.381C291.169 193.227 291.104 193.054 291.076 192.874C291.048 192.693 291.058 192.509 291.106 192.332C291.153 192.156 291.237 191.991 291.352 191.849C291.466 191.707 291.609 191.59 291.772 191.506C291.934 191.423 292.112 191.374 292.295 191.363C292.477 191.352 292.66 191.379 292.831 191.443C293.002 191.507 293.158 191.605 293.289 191.733L299.852 196.983C300.005 197.104 300.129 197.259 300.215 197.435C300.3 197.611 300.344 197.804 300.344 198C300.344 198.196 300.3 198.389 300.215 198.565C300.129 198.741 300.005 198.896 299.852 199.017ZM309.531 204.562H302.969C302.621 204.562 302.287 204.424 302.041 204.178C301.795 203.932 301.656 203.598 301.656 203.25C301.656 202.902 301.795 202.568 302.041 202.322C302.287 202.076 302.621 201.938 302.969 201.938H309.531C309.879 201.938 310.213 202.076 310.459 202.322C310.705 202.568 310.844 202.902 310.844 203.25C310.844 203.598 310.705 203.932 310.459 204.178C310.213 204.424 309.879 204.562 309.531 204.562Z" fill="#0F62FE"/>
<g filter="url(#filter4_b_5_48)">
<rect width="45.9373" height="45.9373" transform="matrix(0.866025 0.5 -2.20305e-08 1 261.902 172.969)" fill="url(#paint7_linear_5_48)" fill-opacity="0.2"/>
<rect width="45.9373" height="45.9373" transform="matrix(0.866025 0.5 -2.20305e-08 1 261.902 172.969)" stroke="url(#paint8_linear_5_48)" stroke-width="2" stroke-linejoin="bevel"/>
</g>
<g filter="url(#filter5_b_5_48)">
<rect width="45.9373" height="45.9373" transform="matrix(-0.866025 0.5 2.20305e-08 1 341.421 172.969)" fill="url(#paint9_linear_5_48)" fill-opacity="0.3"/>
<rect width="45.9373" height="45.9373" transform="matrix(-0.866025 0.5 2.20305e-08 1 341.421 172.969)" fill="url(#paint10_radial_5_48)" fill-opacity="0.59"/>
<rect width="45.9373" height="45.9373" transform="matrix(-0.866025 0.5 2.20305e-08 1 341.421 172.969)" stroke="url(#paint11_linear_5_48)" stroke-width="2" stroke-linejoin="bevel"/>
</g>
<g filter="url(#filter6_b_5_48)">
<rect width="45.9373" height="45.9373" transform="matrix(0.866025 0.5 -0.866025 0.5 301.686 150)" fill="url(#paint12_linear_5_48)" fill-opacity="0.2"/>
<rect width="45.9373" height="45.9373" transform="matrix(0.866025 0.5 -0.866025 0.5 301.686 150)" stroke="url(#paint13_linear_5_48)" stroke-width="2" stroke-linejoin="bevel"/>
</g>
<path d="M342.741 177.983C350.437 179.684 355.44 182.842 357.118 187.058C358.796 191.275 357.073 196.36 352.166 201.67C347.26 206.98 339.391 212.278 329.555 216.893C319.718 221.507 308.356 225.232 296.905 227.595C285.454 229.959 274.428 230.855 265.222 230.17C256.015 229.486 249.042 227.252 245.184 223.75C241.326 220.249 240.756 215.637 243.546 210.498C246.337 205.36 252.362 199.925 260.86 194.882L261.644 195.055C253.317 199.997 247.414 205.322 244.68 210.357C241.946 215.392 242.504 219.911 246.284 223.342C250.065 226.773 256.897 228.962 265.918 229.632C274.939 230.303 285.742 229.425 296.963 227.109C308.183 224.793 319.316 221.144 328.955 216.622C338.593 212.101 346.303 206.91 351.11 201.707C355.918 196.503 357.606 191.521 355.962 187.389C354.318 183.258 349.416 180.163 341.875 178.497L342.741 177.983Z" fill="url(#paint14_linear_5_48)"/>
<circle cx="233.315" cy="215.625" r="3.75851" fill="#0F62FE"/>
<circle cx="360.582" cy="172.903" r="2.08806" fill="#33B1FF"/>
<defs>
<filter id="filter0_f_5_48" x="0" y="0" width="600" height="440" filterUnits="userSpaceOnUse" color-interpolation-filters="sRGB">
<feFlood flood-opacity="0" result="BackgroundImageFix"/>
<feBlend mode="normal" in="SourceGraphic" in2="BackgroundImageFix" result="shape"/>
<feGaussianBlur stdDeviation="50" result="effect1_foregroundBlur_5_48"/>
</filter>
<filter id="filter1_f_5_48" x="229.2" y="165.405" width="142.515" height="137.539" filterUnits="userSpaceOnUse" color-interpolation-filters="sRGB">
<feFlood flood-opacity="0" result="BackgroundImageFix"/>
<feBlend mode="normal" in="SourceGraphic" in2="BackgroundImageFix" result="shape"/>
<feGaussianBlur stdDeviation="27.8074" result="effect1_foregroundBlur_5_48"/>
</filter>
<filter id="filter2_i_5_48" x="261.902" y="195.937" width="79.5658" height="45.9373" filterUnits="userSpaceOnUse" color-interpolation-filters="sRGB">
<feFlood flood-opacity="0" result="BackgroundImageFix"/>
<feBlend mode="normal" in="SourceGraphic" in2="BackgroundImageFix" result="shape"/>
<feColorMatrix in="SourceAlpha" type="matrix" values="0 0 0 0 0 0 0 0 0 0 0 0 0 0 0 0 0 0 127 0" result="hardAlpha"/>
<feOffset/>
<feGaussianBlur stdDeviation="3.44028"/>
<feComposite in2="hardAlpha" operator="arithmetic" k2="-1" k3="1"/>
<feColorMatrix type="matrix" values="0 0 0 0 1 0 0 0 0 1 0 0 0 0 1 0 0 0 1 0"/>
<feBlend mode="normal" in2="shape" result="effect1_innerShadow_5_48"/>
</filter>
<filter id="filter3_bii_5_48" x="296.7" y="145.041" width="49.5335" height="78.8243" filterUnits="userSpaceOnUse" color-interpolation-filters="sRGB">
<feFlood flood-opacity="0" result="BackgroundImageFix"/>
<feGaussianBlur in="BackgroundImage" stdDeviation="2.16681"/>
<feComposite in2="SourceAlpha" operator="in" result="effect1_backgroundBlur_5_48"/>
<feBlend mode="normal" in="SourceGraphic" in2="effect1_backgroundBlur_5_48" result="shape"/>
<feColorMatrix in="SourceAlpha" type="matrix" values="0 0 0 0 0 0 0 0 0 0 0 0 0 0 0 0 0 0 127 0" result="hardAlpha"/>
<feOffset/>
<feGaussianBlur stdDeviation="4.33363"/>
<feComposite in2="hardAlpha" operator="arithmetic" k2="-1" k3="1"/>
<feColorMatrix type="matrix" values="0 0 0 0 1 0 0 0 0 1 0 0 0 0 1 0 0 0 1 0"/>
<feBlend mode="normal" in2="shape" result="effect2_innerShadow_5_48"/>
<feColorMatrix in="SourceAlpha" type="matrix" values="0 0 0 0 0 0 0 0 0 0 0 0 0 0 0 0 0 0 127 0" result="hardAlpha"/>
<feOffset/>
<feGaussianBlur stdDeviation="4.33363"/>
<feComposite in2="hardAlpha" operator="arithmetic" k2="-1" k3="1"/>
<feColorMatrix type="matrix" values="0 0 0 0 1 0 0 0 0 1 0 0 0 0 1 0 0 0 1 0"/>
<feBlend mode="normal" in2="effect2_innerShadow_5_48" result="effect3_innerShadow_5_48"/>
</filter>
<filter id="filter4_b_5_48" x="258.036" y="168.969" width="47.515" height="76.906" filterUnits="userSpaceOnUse" color-interpolation-filters="sRGB">
<feFlood flood-opacity="0" result="BackgroundImageFix"/>
<feGaussianBlur in="BackgroundImage" stdDeviation="1.5"/>
<feComposite in2="SourceAlpha" operator="in" result="effect1_backgroundBlur_5_48"/>
<feBlend mode="normal" in="SourceGraphic" in2="effect1_backgroundBlur_5_48" result="shape"/>
</filter>
<filter id="filter5_b_5_48" x="297.772" y="168.969" width="47.515" height="76.906" filterUnits="userSpaceOnUse" color-interpolation-filters="sRGB">
<feFlood flood-opacity="0" result="BackgroundImageFix"/>
<feGaussianBlur in="BackgroundImage" stdDeviation="1.5"/>
<feComposite in2="SourceAlpha" operator="in" result="effect1_backgroundBlur_5_48"/>
<feBlend mode="normal" in="SourceGraphic" in2="effect1_backgroundBlur_5_48" result="shape"/>
</filter>
<filter id="filter6_b_5_48" x="258.037" y="146.5" width="87.2979" height="52.9373" filterUnits="userSpaceOnUse" color-interpolation-filters="sRGB">
<feFlood flood-opacity="0" result="BackgroundImageFix"/>
<feGaussianBlur in="BackgroundImage" stdDeviation="1.5"/>
<feComposite in2="SourceAlpha" operator="in" result="effect1_backgroundBlur_5_48"/>
<feBlend mode="normal" in="SourceGraphic" in2="effect1_backgroundBlur_5_48" result="shape"/>
</filter>
<linearGradient id="paint0_linear_5_48" x1="961" y1="100" x2="961" y2="966" gradientUnits="userSpaceOnUse">
<stop stop-color="#C4C4C4" stop-opacity="0"/>
<stop offset="0.526042" stop-color="#C4C4C4"/>
<stop offset="1" stop-color="#C4C4C4" stop-opacity="0"/>
</linearGradient>
<linearGradient id="paint1_linear_5_48" x1="240.2" y1="261.085" x2="362.355" y2="261.161" gradientUnits="userSpaceOnUse">
<stop stop-color="#F4F8FF"/>
<stop offset="0.494792" stop-color="#9BC3FF"/>
<stop offset="0.494892" stop-color="#E8F0FF"/>
<stop offset="1" stop-color="#EFF3FF"/>
</linearGradient>
<linearGradient id="paint2_linear_5_48" x1="240.2" y1="261.085" x2="362.355" y2="261.161" gradientUnits="userSpaceOnUse">
<stop stop-color="#F4F8FF"/>
<stop offset="0.494792" stop-color="#9BC3FF"/>
<stop offset="0.494892" stop-color="#E8F0FF"/>
<stop offset="1" stop-color="#EFF3FF"/>
</linearGradient>
<linearGradient id="paint3_linear_5_48" x1="240.2" y1="252.345" x2="362.355" y2="252.422" gradientUnits="userSpaceOnUse">
<stop stop-color="#F4F8FF"/>
<stop offset="0.494792" stop-color="#9BC3FF"/>
<stop offset="0.494892" stop-color="#E8F0FF"/>
<stop offset="1" stop-color="#EFF3FF"/>
</linearGradient>
<linearGradient id="paint4_linear_5_48" x1="240.2" y1="252.345" x2="362.355" y2="252.422" gradientUnits="userSpaceOnUse">
<stop stop-color="#F4F8FF"/>
<stop offset="0.494792" stop-color="#9BC3FF"/>
<stop offset="0.494892" stop-color="#E8F0FF"/>
<stop offset="1" stop-color="#EFF3FF"/>
</linearGradient>
<linearGradient id="paint5_linear_5_48" x1="22.9687" y1="0" x2="22.9687" y2="45.9373" gradientUnits="userSpaceOnUse">
<stop stop-color="#325FFF" stop-opacity="0.31"/>
<stop offset="1" stop-color="#005CE7"/>
</linearGradient>
<linearGradient id="paint6_linear_5_48" x1="45.8106" y1="0.0633579" x2="36.8912" y2="-0.816731" gradientUnits="userSpaceOnUse">
<stop stop-color="white"/>
<stop offset="1" stop-color="white" stop-opacity="0"/>
</linearGradient>
<linearGradient id="paint7_linear_5_48" x1="6.50993" y1="4.05325" x2="28.3896" y2="51.8515" gradientUnits="userSpaceOnUse">
<stop stop-color="#32DAFF"/>
<stop offset="0.494792" stop-color="#3284FF"/>
<stop offset="1" stop-color="#B7FFFB"/>
</linearGradient>
<linearGradient id="paint8_linear_5_48" x1="45.8106" y1="0.0633547" x2="32.9313" y2="33.4987" gradientUnits="userSpaceOnUse">
<stop stop-color="white"/>
<stop offset="1" stop-color="white" stop-opacity="0"/>
</linearGradient>
<linearGradient id="paint9_linear_5_48" x1="14.4246" y1="17.0092" x2="38.6055" y2="55.7941" gradientUnits="userSpaceOnUse">
<stop offset="0.557292" stop-color="#3284FF"/>
<stop offset="1" stop-color="#32DAFF"/>
</linearGradient>
<radialGradient id="paint10_radial_5_48" cx="0" cy="0" r="1" gradientUnits="userSpaceOnUse" gradientTransform="translate(28.65 44.9759) rotate(-158.782) scale(10.087 13.4902)">
<stop stop-color="#CBFCFF"/>
<stop offset="1" stop-color="white" stop-opacity="0.17"/>
</radialGradient>
<linearGradient id="paint11_linear_5_48" x1="45.8106" y1="0.0633549" x2="26.4146" y2="15.8726" gradientUnits="userSpaceOnUse">
<stop stop-color="white"/>
<stop offset="1" stop-color="white" stop-opacity="0"/>
</linearGradient>
<linearGradient id="paint12_linear_5_48" x1="33.397" y1="46.7846" x2="43.4789" y2="-0.661131" gradientUnits="userSpaceOnUse">
<stop stop-color="#32DAFF"/>
<stop offset="1" stop-color="#3284FF"/>
</linearGradient>
<linearGradient id="paint13_linear_5_48" x1="45.874" y1="46.0007" x2="29.9205" y2="32.5384" gradientUnits="userSpaceOnUse">
<stop stop-color="white"/>
<stop offset="1" stop-color="white" stop-opacity="0"/>
</linearGradient>
<linearGradient id="paint14_linear_5_48" x1="238.987" y1="207.298" x2="373.231" y2="174.409" gradientUnits="userSpaceOnUse">
<stop stop-color="#0F62FE"/>
<stop offset="0.15625" stop-color="white"/>
<stop offset="0.661458" stop-color="white"/>
<stop offset="1" stop-color="#33B1FF"/>
</linearGradient>
<clipPath id="clip0_5_48">
<rect width="600" height="240" fill="white" transform="translate(1 100)"/>
</clipPath>
</defs>
</svg>
