<svg width="621" height="480" viewBox="0 0 621 480" fill="none" xmlns="http://www.w3.org/2000/svg">
<rect y="71" width="611" height="2" fill="#535355"/>
<rect x="109" y="71" width="125" height="2" fill="#535355"/>
<rect x="109" y="66" width="176" height="12" fill="#09090B"/>
<rect x="541" y="66" width="80" height="12" fill="#09090B"/>
<mask id="path-5-inside-1_10_174" fill="white">
<path fill-rule="evenodd" clip-rule="evenodd" d="M129 48C126.791 48 125 49.7909 125 52V92C125 94.2091 126.791 96 129 96H137H159H161C167.627 96 173 101.373 173 108V110V132V140C173 142.209 174.791 144 177 144H185H207H209C215.627 144 221 149.373 221 156V158V180V188C221 190.209 222.791 192 225 192H233H255H257C263.627 192 269 197.373 269 204V206V226V228C269 234.627 263.627 240 257 240H255H233H225C222.791 240 221 241.791 221 244V252V274V276C221 282.627 215.627 288 209 288H207H185H177C174.791 288 173 289.791 173 292V300V322V324C173 330.627 167.627 336 161 336H159H139H137C130.373 336 125 330.627 125 324V322V300V292C125 289.791 123.209 288 121 288H81C78.7908 288 77 289.791 77 292V332C77 334.209 78.7908 336 81 336H89H111H113C119.627 336 125 341.373 125 348V350V372V380C125 382.209 126.791 384 129 384H137H159H161C167.627 384 173 389.373 173 396V398V420V428C173 430.209 174.791 432 177 432H217C219.209 432 221 430.209 221 428V388C221 385.791 219.209 384 217 384H209H187H185C178.373 384 173 378.627 173 372V370V350V348C173 341.373 178.373 336 185 336H187H209H217C219.209 336 221 334.209 221 332V324V302V300C221 293.373 226.373 288 233 288H235H255H257C263.627 288 269 293.373 269 300V302V324V332C269 334.209 270.791 336 273 336H313C315.209 336 317 334.209 317 332V292C317 289.791 315.209 288 313 288H305H283H281C274.373 288 269 282.627 269 276V274V254V252C269 245.373 274.373 240 281 240H283H305H313C315.209 240 317 238.209 317 236V228V206V204C317 197.373 322.373 192 329 192H331H353H361C363.209 192 365 190.209 365 188V148C365 145.791 363.209 144 361 144H321C318.791 144 317 145.791 317 148V156V178V180C317 186.627 311.627 192 305 192H303H283H281C274.373 192 269 186.627 269 180V178V156V148C269 145.791 267.209 144 265 144H257H235H233C226.373 144 221 138.627 221 132V130V110V108C221 101.373 226.373 96 233 96H235H257H265C267.209 96 269 94.2091 269 92V52C269 49.7909 267.209 48 265 48H225C222.791 48 221 49.7909 221 52V60V82V84C221 90.6274 215.627 96 209 96H207H187H185C178.373 96 173 90.6274 173 84V82V60V52C173 49.7909 171.209 48 169 48H129Z"/>
</mask>
<path d="M127 52C127 50.8954 127.895 50 129 50V46C125.686 46 123 48.6863 123 52H127ZM127 92V52H123V92H127ZM129 94C127.895 94 127 93.1046 127 92H123C123 95.3137 125.686 98 129 98V94ZM137 94H129V98H137V94ZM159 94H137V98H159V94ZM161 94H159V98H161V94ZM175 108C175 100.268 168.732 94 161 94V98C166.523 98 171 102.477 171 108H175ZM175 110V108H171V110H175ZM175 132V110H171V132H175ZM175 140V132H171V140H175ZM177 142C175.895 142 175 141.105 175 140H171C171 143.314 173.686 146 177 146V142ZM185 142H177V146H185V142ZM207 142H185V146H207V142ZM209 142H207V146H209V142ZM223 156C223 148.268 216.732 142 209 142V146C214.523 146 219 150.477 219 156H223ZM223 158V156H219V158H223ZM223 180V158H219V180H223ZM223 188V180H219V188H223ZM225 190C223.895 190 223 189.105 223 188H219C219 191.314 221.686 194 225 194V190ZM233 190H225V194H233V190ZM255 190H233V194H255V190ZM257 190H255V194H257V190ZM271 204C271 196.268 264.732 190 257 190V194C262.523 194 267 198.477 267 204H271ZM271 206V204H267V206H271ZM271 226V206H267V226H271ZM271 228V226H267V228H271ZM257 242C264.732 242 271 235.732 271 228H267C267 233.523 262.523 238 257 238V242ZM255 242H257V238H255V242ZM233 242H255V238H233V242ZM225 242H233V238H225V242ZM223 244C223 242.895 223.895 242 225 242V238C221.686 238 219 240.686 219 244H223ZM223 252V244H219V252H223ZM219 252V274H223V252H219ZM219 274V276H223V274H219ZM219 276C219 281.523 214.523 286 209 286V290C216.732 290 223 283.732 223 276H219ZM209 286H207V290H209V286ZM207 286H185V290H207V286ZM177 290H185V286H177V290ZM175 292C175 290.895 175.895 290 177 290V286C173.686 286 171 288.686 171 292H175ZM175 300V292H171V300H175ZM175 322V300H171V322H175ZM175 324V322H171V324H175ZM161 338C168.732 338 175 331.732 175 324H171C171 329.523 166.523 334 161 334V338ZM159 338H161V334H159V338ZM139 338H159V334H139V338ZM137 338H139V334H137V338ZM123 324C123 331.732 129.268 338 137 338V334C131.477 334 127 329.523 127 324H123ZM123 322V324H127V322H123ZM123 300V322H127V300H123ZM123 292V300H127V292H123ZM121 290C122.105 290 123 290.895 123 292H127C127 288.686 124.314 286 121 286V290ZM81 290H121V286H81V290ZM79 292C79 290.895 79.8954 290 81 290V286C77.6863 286 75 288.686 75 292H79ZM79 332V292H75V332H79ZM81 334C79.8954 334 79 333.105 79 332H75C75 335.314 77.6863 338 81 338V334ZM89 334H81V338H89V334ZM89 338H111V334H89V338ZM111 338H113V334H111V338ZM113 338C118.523 338 123 342.477 123 348H127C127 340.268 120.732 334 113 334V338ZM123 348V350H127V348H123ZM123 350V372H127V350H123ZM127 380V372H123V380H127ZM129 382C127.895 382 127 381.105 127 380H123C123 383.314 125.686 386 129 386V382ZM137 382H129V386H137V382ZM159 382H137V386H159V382ZM161 382H159V386H161V382ZM175 396C175 388.268 168.732 382 161 382V386C166.523 386 171 390.477 171 396H175ZM175 398V396H171V398H175ZM175 420V398H171V420H175ZM175 428V420H171V428H175ZM177 430C175.895 430 175 429.105 175 428H171C171 431.314 173.686 434 177 434V430ZM217 430H177V434H217V430ZM219 428C219 429.105 218.105 430 217 430V434C220.314 434 223 431.314 223 428H219ZM219 388V428H223V388H219ZM217 386C218.105 386 219 386.895 219 388H223C223 384.686 220.314 382 217 382V386ZM209 386H217V382H209V386ZM187 386H209V382H187V386ZM185 386H187V382H185V386ZM171 372C171 379.732 177.268 386 185 386V382C179.477 382 175 377.523 175 372H171ZM171 370V372H175V370H171ZM171 350V370H175V350H171ZM171 348V350H175V348H171ZM185 334C177.268 334 171 340.268 171 348H175C175 342.477 179.477 338 185 338V334ZM187 334H185V338H187V334ZM209 334H187V338H209V334ZM217 334H209V338H217V334ZM219 332C219 333.105 218.105 334 217 334V338C220.314 338 223 335.314 223 332H219ZM219 324V332H223V324H219ZM223 324V302H219V324H223ZM223 302V300H219V302H223ZM223 300C223 294.477 227.477 290 233 290V286C225.268 286 219 292.268 219 300H223ZM233 290H235V286H233V290ZM235 290H255V286H235V290ZM255 290H257V286H255V290ZM257 290C262.523 290 267 294.477 267 300H271C271 292.268 264.732 286 257 286V290ZM267 300V302H271V300H267ZM267 302V324H271V302H267ZM271 332V324H267V332H271ZM273 334C271.895 334 271 333.105 271 332H267C267 335.314 269.686 338 273 338V334ZM313 334H273V338H313V334ZM315 332C315 333.105 314.105 334 313 334V338C316.314 338 319 335.314 319 332H315ZM315 292V332H319V292H315ZM313 290C314.105 290 315 290.895 315 292H319C319 288.686 316.314 286 313 286V290ZM305 290H313V286H305V290ZM283 290H305V286H283V290ZM281 290H283V286H281V290ZM267 276C267 283.732 273.268 290 281 290V286C275.477 286 271 281.523 271 276H267ZM267 274V276H271V274H267ZM267 254V274H271V254H267ZM267 252V254H271V252H267ZM281 238C273.268 238 267 244.268 267 252H271C271 246.477 275.477 242 281 242V238ZM283 238H281V242H283V238ZM305 238H283V242H305V238ZM313 238H305V242H313V238ZM315 236C315 237.105 314.105 238 313 238V242C316.314 242 319 239.314 319 236H315ZM315 228V236H319V228H315ZM319 228V206H315V228H319ZM319 206V204H315V206H319ZM319 204C319 198.477 323.477 194 329 194V190C321.268 190 315 196.268 315 204H319ZM329 194H331V190H329V194ZM331 194H353V190H331V194ZM361 190H353V194H361V190ZM363 188C363 189.105 362.105 190 361 190V194C364.314 194 367 191.314 367 188H363ZM363 148V188H367V148H363ZM361 146C362.105 146 363 146.895 363 148H367C367 144.686 364.314 142 361 142V146ZM321 146H361V142H321V146ZM319 148C319 146.895 319.895 146 321 146V142C317.686 142 315 144.686 315 148H319ZM319 156V148H315V156H319ZM315 156V178H319V156H315ZM315 178V180H319V178H315ZM315 180C315 185.523 310.523 190 305 190V194C312.732 194 319 187.732 319 180H315ZM305 190H303V194H305V190ZM303 190H283V194H303V190ZM283 190H281V194H283V190ZM281 190C275.477 190 271 185.523 271 180H267C267 187.732 273.268 194 281 194V190ZM271 180V178H267V180H271ZM271 178V156H267V178H271ZM267 148V156H271V148H267ZM265 146C266.105 146 267 146.895 267 148H271C271 144.686 268.314 142 265 142V146ZM257 146H265V142H257V146ZM235 146H257V142H235V146ZM233 146H235V142H233V146ZM219 132C219 139.732 225.268 146 233 146V142C227.477 142 223 137.523 223 132H219ZM219 130V132H223V130H219ZM219 110V130H223V110H219ZM219 108V110H223V108H219ZM233 94C225.268 94 219 100.268 219 108H223C223 102.477 227.477 98 233 98V94ZM235 94H233V98H235V94ZM257 94H235V98H257V94ZM265 94H257V98H265V94ZM267 92C267 93.1046 266.105 94 265 94V98C268.314 98 271 95.3137 271 92H267ZM267 52V92H271V52H267ZM265 50C266.105 50 267 50.8954 267 52H271C271 48.6863 268.314 46 265 46V50ZM225 50H265V46H225V50ZM223 52C223 50.8954 223.895 50 225 50V46C221.686 46 219 48.6863 219 52H223ZM223 60V52H219V60H223ZM219 60V82H223V60H219ZM219 82V84H223V82H219ZM219 84C219 89.5228 214.523 94 209 94V98C216.732 98 223 91.732 223 84H219ZM209 94H207V98H209V94ZM207 94H187V98H207V94ZM187 94H185V98H187V94ZM185 94C179.477 94 175 89.5228 175 84H171C171 91.732 177.268 98 185 98V94ZM175 84V82H171V84H175ZM175 82V60H171V82H175ZM171 52V60H175V52H171ZM169 50C170.105 50 171 50.8954 171 52H175C175 48.6863 172.314 46 169 46V50ZM129 50H169V46H129V50Z" fill="#295297" mask="url(#path-5-inside-1_10_174)"/>
<mask id="path-7-inside-2_10_174" fill="white">
<path fill-rule="evenodd" clip-rule="evenodd" d="M425 240H417C414.791 240 413 241.791 413 244V252V276V284C413 286.209 414.791 288 417 288H425H447H449C455.627 288 461 293.373 461 300V302V324V332C461 334.209 462.791 336 465 336H473H495H497C503.627 336 509 341.373 509 348V350V370V372C509 378.627 503.627 384 497 384H495H473H465C462.791 384 461 385.791 461 388V396V420V428C461 430.209 462.791 432 465 432H473H495H497C503.627 432 509 437.373 509 444V446V468V476C509 478.209 510.791 480 513 480H553C555.209 480 557 478.209 557 476V436C557 433.791 555.209 432 553 432H545H523H521C514.373 432 509 426.627 509 420V418V398V396C509 389.373 514.373 384 521 384H523H545H553C555.209 384 557 382.209 557 380V372V348V340C557 337.791 555.209 336 553 336H545H523H521C514.373 336 509 330.627 509 324V322V300V292C509 289.791 507.209 288 505 288H497H475H473C466.373 288 461 282.627 461 276V274V252V244C461 241.791 459.209 240 457 240H449H425Z"/>
</mask>
<path d="M425 238H417V242H425V238ZM417 238C413.686 238 411 240.686 411 244H415C415 242.895 415.895 242 417 242V238ZM411 244V252H415V244H411ZM411 252V276H415V252H411ZM411 276V284H415V276H411ZM411 284C411 287.314 413.686 290 417 290V286C415.895 286 415 285.105 415 284H411ZM417 290H425V286H417V290ZM425 290H447V286H425V290ZM449 286H447V290H449V286ZM463 300C463 292.268 456.732 286 449 286V290C454.523 290 459 294.477 459 300H463ZM463 302V300H459V302H463ZM459 302V324H463V302H459ZM459 324V332H463V324H459ZM459 332C459 335.314 461.686 338 465 338V334C463.895 334 463 333.105 463 332H459ZM465 338H473V334H465V338ZM473 338H495V334H473V338ZM497 334H495V338H497V334ZM511 348C511 340.268 504.732 334 497 334V338C502.523 338 507 342.477 507 348H511ZM511 350V348H507V350H511ZM507 350V370H511V350H507ZM511 372V370H507V372H511ZM497 386C504.732 386 511 379.732 511 372H507C507 377.523 502.523 382 497 382V386ZM495 386H497V382H495V386ZM495 382H473V386H495V382ZM473 382H465V386H473V382ZM465 382C461.686 382 459 384.686 459 388H463C463 386.895 463.895 386 465 386V382ZM459 388V396H463V388H459ZM459 396V420H463V396H459ZM459 420V428H463V420H459ZM459 428C459 431.314 461.686 434 465 434V430C463.895 430 463 429.105 463 428H459ZM465 434H473V430H465V434ZM473 434H495V430H473V434ZM495 434H497V430H495V434ZM497 434C502.523 434 507 438.477 507 444H511C511 436.268 504.732 430 497 430V434ZM507 444V446H511V444H507ZM507 446V468H511V446H507ZM507 468V476H511V468H507ZM507 476C507 479.314 509.686 482 513 482V478C511.895 478 511 477.105 511 476H507ZM513 482H553V478H513V482ZM553 482C556.314 482 559 479.314 559 476H555C555 477.105 554.105 478 553 478V482ZM559 476V436H555V476H559ZM559 436C559 432.686 556.314 430 553 430V434C554.105 434 555 434.895 555 436H559ZM553 430H545V434H553V430ZM545 430H523V434H545V430ZM521 434H523V430H521V434ZM507 420C507 427.732 513.268 434 521 434V430C515.477 430 511 425.523 511 420H507ZM507 418V420H511V418H507ZM511 418V398H507V418H511ZM507 396V398H511V396H507ZM521 382C513.268 382 507 388.268 507 396H511C511 390.477 515.477 386 521 386V382ZM523 382H521V386H523V382ZM523 386H545V382H523V386ZM545 386H553V382H545V386ZM553 386C556.314 386 559 383.314 559 380H555C555 381.105 554.105 382 553 382V386ZM559 380V372H555V380H559ZM559 372V348H555V372H559ZM559 348V340H555V348H559ZM559 340C559 336.686 556.314 334 553 334V338C554.105 338 555 338.895 555 340H559ZM553 334H545V338H553V334ZM545 334H523V338H545V334ZM523 334H521V338H523V334ZM521 334C515.477 334 511 329.523 511 324H507C507 331.732 513.268 338 521 338V334ZM511 324V322H507V324H511ZM511 322V300H507V322H511ZM511 300V292H507V300H511ZM511 292C511 288.686 508.314 286 505 286V290C506.105 290 507 290.895 507 292H511ZM505 286H497V290H505V286ZM497 286H475V290H497V286ZM473 290H475V286H473V290ZM459 276C459 283.732 465.268 290 473 290V286C467.477 286 463 281.523 463 276H459ZM459 274V276H463V274H459ZM463 274V252H459V274H463ZM463 252V244H459V252H463ZM463 244C463 240.686 460.314 238 457 238V242C458.105 242 459 242.895 459 244H463ZM457 238H449V242H457V238ZM449 238H425V242H449V238Z" fill="#535355" mask="url(#path-7-inside-2_10_174)"/>
<mask id="path-9-inside-3_10_174" fill="white">
<path fill-rule="evenodd" clip-rule="evenodd" d="M545 0H521H513C510.791 0 509 1.79086 509 4V12V36V44C509 46.2091 510.791 48 513 48H521H543H545C551.627 48 557 53.3726 557 60V62V82V84C557 90.6274 551.627 96 545 96H543H521H513C510.791 96 509 97.7909 509 100V108V130V132C509 138.627 503.627 144 497 144H495H473H465C462.791 144 461 145.791 461 148V156V180V188C461 190.209 462.791 192 465 192H473H497H505C507.209 192 509 190.209 509 188V180V158V156C509 149.373 514.373 144 521 144H523H545H553C555.209 144 557 142.209 557 140V132V110V108C557 101.373 562.373 96 569 96H571H593H601C603.209 96 605 94.2091 605 92V84V60V52C605 49.7909 603.209 48 601 48H593H571H569C562.373 48 557 42.6274 557 36V34V12V4C557 1.79086 555.209 0 553 0H545Z"/>
</mask>
<path d="M521 2H545V-2H521V2ZM513 2H521V-2H513V2ZM511 4C511 2.89543 511.895 2 513 2V-2C509.686 -2 507 0.686288 507 4H511ZM511 12V4H507V12H511ZM511 36V12H507V36H511ZM511 44V36H507V44H511ZM513 46C511.895 46 511 45.1046 511 44H507C507 47.3137 509.686 50 513 50V46ZM521 46H513V50H521V46ZM543 46H521V50H543V46ZM545 46H543V50H545V46ZM559 60C559 52.268 552.732 46 545 46V50C550.523 50 555 54.4772 555 60H559ZM559 62V60H555V62H559ZM559 82V62H555V82H559ZM559 84V82H555V84H559ZM545 98C552.732 98 559 91.732 559 84H555C555 89.5228 550.523 94 545 94V98ZM543 98H545V94H543V98ZM521 98H543V94H521V98ZM513 98H521V94H513V98ZM511 100C511 98.8954 511.895 98 513 98V94C509.686 94 507 96.6863 507 100H511ZM511 108V100H507V108H511ZM511 130V108H507V130H511ZM507 130V132H511V130H507ZM507 132C507 137.523 502.523 142 497 142V146C504.732 146 511 139.732 511 132H507ZM497 142H495V146H497V142ZM473 146H495V142H473V146ZM465 146H473V142H465V146ZM463 148C463 146.895 463.895 146 465 146V142C461.686 142 459 144.686 459 148H463ZM463 156V148H459V156H463ZM463 180V156H459V180H463ZM463 188V180H459V188H463ZM465 190C463.895 190 463 189.105 463 188H459C459 191.314 461.686 194 465 194V190ZM473 190H465V194H473V190ZM497 190H473V194H497V190ZM505 190H497V194H505V190ZM507 188C507 189.105 506.105 190 505 190V194C508.314 194 511 191.314 511 188H507ZM507 180V188H511V180H507ZM507 158V180H511V158H507ZM511 158V156H507V158H511ZM511 156C511 150.477 515.477 146 521 146V142C513.268 142 507 148.268 507 156H511ZM521 146H523V142H521V146ZM545 142H523V146H545V142ZM553 142H545V146H553V142ZM555 140C555 141.105 554.105 142 553 142V146C556.314 146 559 143.314 559 140H555ZM555 132V140H559V132H555ZM555 110V132H559V110H555ZM555 108V110H559V108H555ZM569 94C561.268 94 555 100.268 555 108H559C559 102.477 563.477 98 569 98V94ZM571 94H569V98H571V94ZM593 94H571V98H593V94ZM601 94H593V98H601V94ZM603 92C603 93.1046 602.105 94 601 94V98C604.314 98 607 95.3137 607 92H603ZM603 84V92H607V84H603ZM603 60V84H607V60H603ZM603 52V60H607V52H603ZM601 50C602.105 50 603 50.8954 603 52H607C607 48.6863 604.314 46 601 46V50ZM593 50H601V46H593V50ZM571 50H593V46H571V50ZM571 46H569V50H571V46ZM569 46C563.477 46 559 41.5228 559 36H555C555 43.732 561.268 50 569 50V46ZM559 36V34H555V36H559ZM555 12V34H559V12H555ZM555 4V12H559V4H555ZM553 2C554.105 2 555 2.89543 555 4H559C559 0.686294 556.314 -2 553 -2V2ZM545 2H553V-2H545V2Z" fill="#3863F9" mask="url(#path-9-inside-3_10_174)"/>
</svg>
