<svg width="1871" height="667" viewBox="0 0 1871 667" fill="none" xmlns="http://www.w3.org/2000/svg">
<g clip-path="url(#clip0_6_210)">
<mask id="mask0_6_210" style="mask-type:alpha" maskUnits="userSpaceOnUse" x="0" y="0" width="1921" height="866">
<rect x="0.00012207" width="1920" height="866" fill="url(#paint0_linear_6_210)"/>
</mask>
<g mask="url(#mask0_6_210)">
<line y1="-0.5" x2="1929" y2="-0.5" transform="matrix(-0.866026 0.5 -0.866025 -0.5 942.32 -545)" stroke="#0C5CF4" stroke-opacity="0.13"/>
<line y1="-0.5" x2="1929" y2="-0.5" transform="matrix(-0.866025 0.5 -0.866025 -0.5 1001.21 -511)" stroke="#0C5CF4" stroke-opacity="0.13"/>
<line y1="-0.5" x2="1929" y2="-0.5" transform="matrix(-0.866025 0.5 -0.866025 -0.5 1060.1 -477)" stroke="#0C5CF4" stroke-opacity="0.13"/>
<line y1="-0.5" x2="1929" y2="-0.5" transform="matrix(-0.866026 0.5 -0.866025 -0.5 1118.99 -443)" stroke="#0C5CF4" stroke-opacity="0.13"/>
<line y1="-0.5" x2="1929" y2="-0.5" transform="matrix(-0.866026 0.5 -0.866025 -0.5 1177.88 -409)" stroke="#0C5CF4" stroke-opacity="0.13"/>
<line y1="-0.5" x2="1929" y2="-0.5" transform="matrix(-0.866026 0.5 -0.866025 -0.5 1236.77 -375)" stroke="#0C5CF4" stroke-opacity="0.13"/>
<line y1="-0.5" x2="1929" y2="-0.5" transform="matrix(-0.866025 0.5 -0.866025 -0.5 1295.66 -341)" stroke="#0C5CF4" stroke-opacity="0.13"/>
<line y1="-0.5" x2="1929" y2="-0.5" transform="matrix(-0.866026 0.5 -0.866025 -0.5 1354.55 -307)" stroke="#0C5CF4" stroke-opacity="0.13"/>
<line y1="-0.5" x2="1929" y2="-0.5" transform="matrix(-0.866026 0.5 -0.866025 -0.5 1413.44 -273)" stroke="#0C5CF4" stroke-opacity="0.13"/>
<line y1="-0.5" x2="1929" y2="-0.5" transform="matrix(-0.866026 0.5 -0.866025 -0.5 1472.33 -239)" stroke="#0C5CF4" stroke-opacity="0.13"/>
<line y1="-0.5" x2="1929" y2="-0.5" transform="matrix(-0.866025 0.5 -0.866025 -0.5 1531.22 -205)" stroke="#0C5CF4" stroke-opacity="0.13"/>
<line y1="-0.5" x2="1929" y2="-0.5" transform="matrix(-0.866025 0.5 -0.866025 -0.5 1590.11 -171)" stroke="#0C5CF4" stroke-opacity="0.13"/>
<line y1="-0.5" x2="1929" y2="-0.5" transform="matrix(-0.866026 0.5 -0.866025 -0.5 1649 -137)" stroke="#0C5CF4" stroke-opacity="0.13"/>
<line y1="-0.5" x2="1929" y2="-0.5" transform="matrix(-0.866026 0.5 -0.866025 -0.5 1707.89 -103)" stroke="#0C5CF4" stroke-opacity="0.13"/>
<line y1="-0.5" x2="1929" y2="-0.5" transform="matrix(-0.866026 0.5 -0.866025 -0.5 1766.78 -68.9996)" stroke="#0C5CF4" stroke-opacity="0.13"/>
<line y1="-0.5" x2="1929" y2="-0.5" transform="matrix(-0.866025 0.5 -0.866025 -0.5 1825.67 -34.9996)" stroke="#0C5CF4" stroke-opacity="0.13"/>
<line y1="-0.5" x2="1929" y2="-0.5" transform="matrix(-0.866026 0.5 -0.866025 -0.5 1884.56 -0.999512)" stroke="#0C5CF4" stroke-opacity="0.13"/>
<line y1="-0.5" x2="1929" y2="-0.5" transform="matrix(-0.866026 0.5 -0.866025 -0.5 1943.45 33.0005)" stroke="#0C5CF4" stroke-opacity="0.13"/>
<line y1="-0.5" x2="1929" y2="-0.5" transform="matrix(-0.866026 0.5 -0.866025 -0.5 2002.34 67.0006)" stroke="#0C5CF4" stroke-opacity="0.13"/>
<line y1="-0.5" x2="1929" y2="-0.5" transform="matrix(-0.866025 0.5 -0.866025 -0.5 2061.23 101.001)" stroke="#0C5CF4" stroke-opacity="0.13"/>
<line y1="-0.5" x2="1929" y2="-0.5" transform="matrix(-0.866025 0.5 -0.866025 -0.5 2120.12 135.001)" stroke="#0C5CF4" stroke-opacity="0.13"/>
<line y1="-0.5" x2="1929" y2="-0.5" transform="matrix(-0.866026 0.5 -0.866025 -0.5 2179.01 169.001)" stroke="#0C5CF4" stroke-opacity="0.13"/>
<line y1="-0.5" x2="1929" y2="-0.5" transform="matrix(-0.866026 0.5 -0.866025 -0.5 2237.9 203.001)" stroke="#0C5CF4" stroke-opacity="0.13"/>
<line y1="-0.5" x2="1929" y2="-0.5" transform="matrix(-0.866026 0.5 -0.866025 -0.5 2296.79 237.001)" stroke="#0C5CF4" stroke-opacity="0.13"/>
<line y1="-0.5" x2="1929" y2="-0.5" transform="matrix(-0.866025 0.5 -0.866025 -0.5 2355.68 271.001)" stroke="#0C5CF4" stroke-opacity="0.13"/>
<line y1="-0.5" x2="1929" y2="-0.5" transform="matrix(-0.866026 0.5 -0.866025 -0.5 2414.56 305.001)" stroke="#0C5CF4" stroke-opacity="0.13"/>
<line y1="-0.5" x2="1929" y2="-0.5" transform="matrix(-0.866026 0.5 -0.866025 -0.5 2473.45 339.001)" stroke="#0C5CF4" stroke-opacity="0.13"/>
<line y1="-0.5" x2="1929" y2="-0.5" transform="matrix(-0.866026 0.5 -0.866025 -0.5 2532.34 373.001)" stroke="#0C5CF4" stroke-opacity="0.13"/>
<line y1="-0.5" x2="1929" y2="-0.5" transform="matrix(-0.866025 0.5 -0.866025 -0.5 2591.23 407.001)" stroke="#0C5CF4" stroke-opacity="0.13"/>
<line y1="-0.5" x2="1929" y2="-0.5" transform="matrix(-0.866025 0.5 -0.866025 -0.5 2650.12 441.001)" stroke="#0C5CF4" stroke-opacity="0.13"/>
<line y1="-0.5" x2="2001" y2="-0.5" transform="matrix(0.866025 0.5 -0.866025 0.5 -786.701 454.251)" stroke="#0C5CF4" stroke-opacity="0.13"/>
<line y1="-0.5" x2="2001" y2="-0.5" transform="matrix(0.866025 0.5 -0.866025 0.5 -726.945 419.751)" stroke="#0C5CF4" stroke-opacity="0.13"/>
<line y1="-0.5" x2="2001" y2="-0.5" transform="matrix(0.866025 0.5 -0.866025 0.5 -667.189 385.251)" stroke="#0C5CF4" stroke-opacity="0.13"/>
<line y1="-0.5" x2="2001" y2="-0.5" transform="matrix(0.866025 0.5 -0.866025 0.5 -607.433 350.751)" stroke="#0C5CF4" stroke-opacity="0.13"/>
<line y1="-0.5" x2="2001" y2="-0.5" transform="matrix(0.866025 0.5 -0.866025 0.5 -547.678 316.251)" stroke="#0C5CF4" stroke-opacity="0.13"/>
<line y1="-0.5" x2="2001" y2="-0.5" transform="matrix(0.866025 0.5 -0.866025 0.5 -487.922 281.751)" stroke="#0C5CF4" stroke-opacity="0.13"/>
<line y1="-0.5" x2="2001" y2="-0.5" transform="matrix(0.866025 0.5 -0.866025 0.5 -428.166 247.251)" stroke="#0C5CF4" stroke-opacity="0.13"/>
<line y1="-0.5" x2="2001" y2="-0.5" transform="matrix(0.866025 0.5 -0.866025 0.5 -368.41 212.751)" stroke="#0C5CF4" stroke-opacity="0.13"/>
<line y1="-0.5" x2="2001" y2="-0.5" transform="matrix(0.866025 0.5 -0.866025 0.5 -308.655 178.251)" stroke="#0C5CF4" stroke-opacity="0.13"/>
<line y1="-0.5" x2="2001" y2="-0.5" transform="matrix(0.866025 0.5 -0.866025 0.5 -248.899 143.751)" stroke="#0C5CF4" stroke-opacity="0.13"/>
<line y1="-0.5" x2="2001" y2="-0.5" transform="matrix(0.866025 0.5 -0.866025 0.5 -189.143 109.251)" stroke="#0C5CF4" stroke-opacity="0.13"/>
<line y1="-0.5" x2="2001" y2="-0.5" transform="matrix(0.866025 0.5 -0.866025 0.5 -129.387 74.7508)" stroke="#0C5CF4" stroke-opacity="0.13"/>
<line y1="-0.5" x2="2001" y2="-0.5" transform="matrix(0.866025 0.5 -0.866025 0.5 -69.6316 40.2508)" stroke="#0C5CF4" stroke-opacity="0.13"/>
<line y1="-0.5" x2="2001" y2="-0.5" transform="matrix(0.866025 0.5 -0.866025 0.5 -9.87585 5.75076)" stroke="#0C5CF4" stroke-opacity="0.13"/>
<line y1="-0.5" x2="2001" y2="-0.5" transform="matrix(0.866025 0.5 -0.866025 0.5 49.88 -28.7492)" stroke="#0C5CF4" stroke-opacity="0.13"/>
<line y1="-0.5" x2="2001" y2="-0.5" transform="matrix(0.866025 0.5 -0.866025 0.5 109.636 -63.2492)" stroke="#0C5CF4" stroke-opacity="0.13"/>
<line y1="-0.5" x2="2001" y2="-0.5" transform="matrix(0.866025 0.5 -0.866025 0.5 169.391 -97.7493)" stroke="#0C5CF4" stroke-opacity="0.13"/>
<line y1="-0.5" x2="2001" y2="-0.5" transform="matrix(0.866025 0.5 -0.866025 0.5 229.147 -132.249)" stroke="#0C5CF4" stroke-opacity="0.13"/>
<line y1="-0.5" x2="2001" y2="-0.5" transform="matrix(0.866025 0.5 -0.866025 0.5 288.903 -166.749)" stroke="#0C5CF4" stroke-opacity="0.13"/>
<line y1="-0.5" x2="2001" y2="-0.5" transform="matrix(0.866025 0.5 -0.866025 0.5 348.659 -201.249)" stroke="#0C5CF4" stroke-opacity="0.13"/>
<line y1="-0.5" x2="2001" y2="-0.5" transform="matrix(0.866025 0.5 -0.866025 0.5 408.415 -235.749)" stroke="#0C5CF4" stroke-opacity="0.13"/>
<line y1="-0.5" x2="2001" y2="-0.5" transform="matrix(0.866025 0.5 -0.866025 0.5 468.17 -270.249)" stroke="#0C5CF4" stroke-opacity="0.13"/>
<line y1="-0.5" x2="2001" y2="-0.5" transform="matrix(0.866025 0.5 -0.866025 0.5 527.926 -304.749)" stroke="#0C5CF4" stroke-opacity="0.13"/>
<line y1="-0.5" x2="2001" y2="-0.5" transform="matrix(0.866025 0.5 -0.866025 0.5 587.682 -339.249)" stroke="#0C5CF4" stroke-opacity="0.13"/>
<line y1="-0.5" x2="2001" y2="-0.5" transform="matrix(0.866025 0.5 -0.866025 0.5 647.438 -373.749)" stroke="#0C5CF4" stroke-opacity="0.13"/>
<line y1="-0.5" x2="2001" y2="-0.5" transform="matrix(0.866025 0.5 -0.866025 0.5 707.193 -408.249)" stroke="#0C5CF4" stroke-opacity="0.13"/>
<line y1="-0.5" x2="2001" y2="-0.5" transform="matrix(0.866025 0.5 -0.866025 0.5 766.949 -442.749)" stroke="#0C5CF4" stroke-opacity="0.13"/>
<line y1="-0.5" x2="2001" y2="-0.5" transform="matrix(0.866025 0.5 -0.866025 0.5 826.705 -477.249)" stroke="#0C5CF4" stroke-opacity="0.13"/>
<line y1="-0.5" x2="2001" y2="-0.5" transform="matrix(0.866025 0.5 -0.866025 0.5 886.46 -511.749)" stroke="#0C5CF4" stroke-opacity="0.13"/>
<line y1="-0.5" x2="2001" y2="-0.5" transform="matrix(0.866025 0.5 -0.866025 0.5 946.216 -546.249)" stroke="#0C5CF4" stroke-opacity="0.13"/>
</g>
</g>
<defs>
<linearGradient id="paint0_linear_6_210" x1="960" y1="0" x2="960" y2="866" gradientUnits="userSpaceOnUse">
<stop stop-color="#C4C4C4" stop-opacity="0"/>
<stop offset="0.526042" stop-color="#C4C4C4"/>
<stop offset="1" stop-color="#C4C4C4" stop-opacity="0"/>
</linearGradient>
<clipPath id="clip0_6_210">
<rect width="1871" height="667" fill="white"/>
</clipPath>
</defs>
</svg>
