<svg width="160" height="41" viewBox="0 0 160 41" fill="none" xmlns="http://www.w3.org/2000/svg">
<path fill-rule="evenodd" clip-rule="evenodd" d="M44.8403 28.775C44.8428 28.4674 44.7829 28.1624 44.6641 27.8786C44.5508 27.6064 44.3814 27.361 44.1671 27.1585C43.9409 26.9482 43.6747 26.7858 43.3842 26.6809C43.0719 26.5621 42.7399 26.5036 42.4057 26.5087H40.7109V31.0569H42.4057C42.7401 31.0607 43.0722 31.0009 43.3842 30.8807C43.6743 30.7734 43.9404 30.6098 44.1671 30.3993C44.3815 30.1953 44.5509 29.9487 44.6641 29.6752C44.7829 29.39 44.8428 29.0838 44.8403 28.775ZM44.0027 28.775C44.0042 28.989 43.9658 29.2014 43.8892 29.4012C43.8154 29.5838 43.7064 29.7501 43.5682 29.8905C43.4263 30.0304 43.2571 30.1397 43.0711 30.2114C42.862 30.2887 42.6404 30.3272 42.4175 30.3249H41.5211V27.2172H42.4175C42.6408 27.2142 42.8627 27.2541 43.0711 27.3346C43.2573 27.4077 43.4265 27.5183 43.5682 27.6595C43.7054 27.8021 43.8143 27.9694 43.8892 28.1526C43.9658 28.3511 44.0043 28.5622 44.0027 28.775ZM50.5431 26.497H47.177V31.0451H50.5783V30.3249H47.9715V29.1077H50.273V28.3875H47.9911V27.2132H50.5626V26.4931L50.5431 26.497ZM53.5726 27.6712C53.5713 27.595 53.5884 27.5197 53.6225 27.4515C53.6566 27.3834 53.7066 27.3245 53.7683 27.2798C53.9245 27.1628 54.1176 27.1059 54.3123 27.1193C54.5244 27.1194 54.7344 27.1606 54.9307 27.2406C55.1502 27.3297 55.3579 27.4454 55.5492 27.5851L55.9758 26.9823C55.7491 26.8017 55.4956 26.6577 55.2243 26.5557C54.9352 26.4545 54.6303 26.4055 54.3241 26.4109C54.1129 26.409 53.9029 26.4407 53.7017 26.5048C53.5223 26.5614 53.3559 26.6532 53.2125 26.7749C53.0801 26.8921 52.9723 27.0345 52.8954 27.1937C52.8157 27.3638 52.7756 27.5498 52.778 27.7377C52.7735 27.9229 52.8082 28.107 52.8798 28.2779C52.9453 28.4297 53.0459 28.5639 53.1733 28.6693C53.316 28.7808 53.476 28.868 53.6469 28.9276C53.8592 29.0042 54.0762 29.067 54.2967 29.1155C54.4714 29.1574 54.6439 29.2083 54.8133 29.2681C54.9244 29.3038 55.0299 29.3552 55.1264 29.4208C55.1955 29.462 55.2502 29.5235 55.283 29.5969C55.3119 29.6677 55.3266 29.7435 55.3261 29.82C55.3285 29.9033 55.3097 29.9859 55.2714 30.0598C55.233 30.1338 55.1764 30.1968 55.1069 30.2427C54.9315 30.3528 54.7265 30.4061 54.5198 30.3954C54.2511 30.4032 53.984 30.3525 53.737 30.2466C53.495 30.1299 53.2699 29.9811 53.0676 29.8044L52.6214 30.3954C52.8819 30.6324 53.1846 30.8183 53.5138 30.9434C53.8361 31.0613 54.1767 31.1209 54.5198 31.1195C54.7423 31.123 54.964 31.0927 55.1773 31.0295C55.3635 30.9768 55.5367 30.8862 55.6862 30.7633C55.8275 30.6477 55.9411 30.5019 56.0188 30.3367C56.1007 30.1546 56.1421 29.957 56.1402 29.7574C56.1443 29.5869 56.1123 29.4175 56.0462 29.2603C55.977 29.1174 55.8767 28.9917 55.7527 28.8924C55.6146 28.7776 55.4586 28.6863 55.2908 28.6223C55.0845 28.5409 54.8726 28.4742 54.6568 28.4227C54.4415 28.3679 54.2653 28.3209 54.1205 28.274C54.0036 28.2358 53.8918 28.1832 53.7878 28.1174C53.7168 28.0716 53.6588 28.0083 53.6195 27.9334C53.5892 27.8589 53.5746 27.779 53.5765 27.6986L53.5726 27.6712ZM58.4769 26.497V31.0451H59.2597V26.5087L58.4769 26.497ZM65.9136 30.411V28.501H63.9722V29.1938H65.1465V30.0666C64.9985 30.1769 64.8332 30.2616 64.6572 30.3171C64.4599 30.3806 64.2538 30.4123 64.0466 30.411C63.8304 30.4145 63.6159 30.3732 63.4164 30.2897C63.2315 30.2114 63.0649 30.0954 62.9272 29.9492C62.7884 29.7981 62.6807 29.6212 62.6101 29.4286C62.5367 29.2199 62.4996 29.0001 62.5005 28.7789C62.4997 28.5649 62.5382 28.3527 62.6141 28.1526C62.6863 27.964 62.7924 27.7903 62.9272 27.6399C63.0571 27.4933 63.2156 27.3748 63.393 27.2915C63.5751 27.2051 63.7745 27.1609 63.9761 27.1624C64.1074 27.1616 64.2385 27.1734 64.3676 27.1976C64.4786 27.2203 64.5873 27.253 64.6924 27.2955C64.7929 27.3385 64.8898 27.3895 64.9821 27.4481C65.0721 27.5107 65.1582 27.5773 65.2482 27.6516L65.7531 27.0449C65.6386 26.9503 65.5183 26.8627 65.393 26.7827C65.2689 26.7065 65.1379 26.6423 65.0016 26.5909C64.8552 26.538 64.7047 26.4974 64.5515 26.4696C64.3716 26.4415 64.1896 26.4284 64.0075 26.4304C63.6834 26.4273 63.3623 26.4913 63.0642 26.6183C62.7847 26.7364 62.5318 26.9095 62.3205 27.1271C62.111 27.3434 61.9461 27.5988 61.8351 27.8786C61.7203 28.1676 61.6618 28.4758 61.6629 28.7867C61.659 29.1051 61.7162 29.4213 61.8312 29.7182C61.9401 29.9951 62.1023 30.2478 62.3088 30.4619C62.5198 30.6761 62.773 30.844 63.0524 30.9551C63.3608 31.0792 63.6908 31.1404 64.0231 31.1351C64.2149 31.1351 64.4063 31.1168 64.5946 31.0803C64.7681 31.0436 64.9383 30.9925 65.1034 30.9277C65.257 30.8647 65.405 30.7887 65.5457 30.7007C65.6812 30.6168 65.8119 30.5253 65.9371 30.4267L65.9136 30.411ZM71.4912 29.6282L69.0605 26.497H68.3208V31.0451H69.1036V27.8082L71.6047 31.0451H72.274V26.5087H71.4912V29.64V29.6282ZM75.5461 31.0334V30.141H74.6811V31.0334H75.5461ZM81.6403 30.3054L81.1276 29.7848C80.9507 29.9541 80.7519 30.0989 80.5366 30.2153C80.3153 30.3286 80.0688 30.3839 79.8203 30.3758C79.614 30.3771 79.4099 30.3344 79.2214 30.2506C79.0396 30.1692 78.8769 30.0505 78.7439 29.9022C78.607 29.752 78.5006 29.5765 78.4308 29.3856C78.3558 29.1827 78.3187 28.9678 78.3212 28.7515C78.3187 28.5365 78.3559 28.3228 78.4308 28.1213C78.5001 27.9325 78.6065 27.7594 78.7439 27.6125C78.8771 27.4653 79.0398 27.348 79.2214 27.268C79.409 27.1811 79.6136 27.137 79.8203 27.1389C80.0616 27.1355 80.3003 27.1892 80.517 27.2955C80.7262 27.4003 80.9209 27.5319 81.0963 27.6869L81.609 27.0958C81.5016 26.992 81.3864 26.8965 81.2646 26.8101C81.1432 26.7198 81.0118 26.6437 80.8732 26.5831C80.7223 26.518 80.5648 26.4695 80.4035 26.4383C80.2165 26.4023 80.0264 26.3852 79.8359 26.3874C79.3693 26.3756 78.9104 26.5074 78.5211 26.765C78.1319 27.0227 77.8312 27.3936 77.6597 27.8278C77.5444 28.1193 77.486 28.4302 77.4875 28.7436C77.4846 29.0602 77.5445 29.3741 77.6636 29.6674C77.7743 29.9444 77.9389 30.1968 78.1479 30.4098C78.3568 30.6228 78.606 30.7922 78.8809 30.9081C79.1716 31.032 79.4847 31.0947 79.8007 31.0921C79.9965 31.0932 80.1918 31.0748 80.3839 31.0373C80.5514 31.0009 80.7142 30.9457 80.8693 30.8729C81.0147 30.8026 81.1525 30.7173 81.2802 30.6185C81.413 30.5194 81.5362 30.408 81.6482 30.2858L81.6403 30.3054ZM88.2942 28.7397C88.2963 28.4284 88.2364 28.1197 88.1181 27.8317C88.0071 27.5509 87.8408 27.2953 87.629 27.0801C87.4171 26.8649 87.1642 26.6946 86.8852 26.5792C86.2672 26.3314 85.5774 26.3314 84.9595 26.5792C84.6783 26.6983 84.423 26.8711 84.208 27.088C83.9937 27.3028 83.8247 27.5583 83.7109 27.8395C83.476 28.4234 83.476 29.0756 83.7109 29.6595C83.8238 29.9382 83.99 30.1921 84.2001 30.4071C84.4133 30.6225 84.6675 30.7929 84.9477 30.9081C85.5638 31.1585 86.2534 31.1585 86.8695 30.9081C87.1524 30.7883 87.4091 30.6141 87.6249 30.3954C87.8375 30.1815 88.0052 29.9274 88.1181 29.6478C88.2358 29.3582 88.2956 29.0484 88.2942 28.7358V28.7397ZM87.4566 28.7397C87.4572 28.9549 87.4187 29.1684 87.3431 29.3699C87.2696 29.5587 87.1621 29.7325 87.0261 29.8826C86.8897 30.0296 86.7245 30.1469 86.5407 30.2271C86.3455 30.3113 86.1349 30.354 85.9223 30.3523C85.6099 30.3535 85.3046 30.2583 85.0483 30.0797C84.7919 29.9011 84.5969 29.6478 84.4898 29.3542C84.3385 28.9504 84.3385 28.5055 84.4898 28.1017C84.5601 27.9122 84.6664 27.7381 84.8029 27.589C84.9449 27.4379 85.1166 27.3179 85.3072 27.2364C85.4978 27.1549 85.7033 27.1137 85.9106 27.1154C86.1249 27.1136 86.3371 27.1576 86.5329 27.2446C86.7169 27.3299 86.8829 27.4494 87.0222 27.5968C87.1599 27.7479 87.2687 27.923 87.3431 28.1135C87.4183 28.3137 87.4568 28.5259 87.4566 28.7397ZM94.7446 28.7397C94.7471 28.4321 94.6872 28.1272 94.5685 27.8434C94.4565 27.5704 94.287 27.3247 94.0714 27.1232C93.8514 26.9148 93.5919 26.7524 93.3082 26.6457C92.9958 26.5271 92.6638 26.4687 92.3296 26.4735H90.6309V31.0216H92.3296C92.664 31.0251 92.996 30.9653 93.3082 30.8455C93.5913 30.7359 93.8505 30.5724 94.0714 30.3641C94.2872 30.1612 94.4567 29.9142 94.5685 29.64C94.6872 29.3548 94.7471 29.0486 94.7446 28.7397ZM93.907 28.7397C93.9086 28.9537 93.8701 29.1661 93.7935 29.366C93.7212 29.5494 93.612 29.7159 93.4725 29.8552C93.3313 29.996 93.1619 30.1054 92.9755 30.1762C92.7664 30.2538 92.5448 30.2923 92.3218 30.2897H91.4098V27.1819H92.3062C92.5296 27.1787 92.7515 27.2186 92.9598 27.2994C93.1465 27.3715 93.3159 27.4822 93.4569 27.6242C93.5956 27.7657 93.7047 27.9333 93.7778 28.1174C93.8545 28.3159 93.893 28.527 93.8914 28.7397H93.907ZM100.451 26.4618H97.0852V31.0099H100.483V30.2897H97.8759V29.0724H100.158V28.3522H97.8759V27.178H100.451V26.4578V26.4618ZM103.504 31.0569V30.1645H102.639V31.0569H103.504ZM109.579 27.7925V31.0569H110.362V26.5087H109.508L108.127 28.6575L106.741 26.5087H105.888V31.0569H106.671V27.8082L108.096 29.9374H108.119L109.555 27.7925H109.579ZM115.266 26.4735H114.522L112.522 31.0569H113.34L113.81 29.957H115.959L116.421 31.0569H117.266L115.266 26.4735ZM115.657 29.2486H114.092L114.875 27.4285L115.657 29.2486ZM123.266 31.0569L122.037 29.3347C122.191 29.2935 122.339 29.2316 122.476 29.1507C122.605 29.0722 122.72 28.973 122.816 28.8572C122.912 28.7401 122.988 28.6078 123.039 28.4658C123.16 28.1028 123.148 27.7087 123.004 27.3542C122.93 27.1782 122.816 27.0216 122.671 26.8962C122.513 26.7669 122.331 26.6698 122.135 26.6105C121.907 26.5416 121.669 26.5086 121.431 26.5126H119.403V31.0608H120.186V29.4952H121.188L122.311 31.0608L123.266 31.0569ZM122.307 27.9922C122.312 28.0989 122.292 28.2053 122.247 28.3025C122.203 28.3998 122.137 28.4853 122.053 28.5519C121.859 28.7015 121.617 28.7765 121.372 28.7632H120.198V27.2289H121.372C121.619 27.2125 121.865 27.2801 122.069 27.4207C122.152 27.4897 122.218 27.5775 122.261 27.6768C122.304 27.7761 122.322 27.8842 122.315 27.9922H122.307ZM127.521 28.4618L129.412 26.5048H128.429L126.265 28.7906V26.5048H125.482V31.0529H126.265V29.7339L126.989 29.0098L128.554 31.0569H129.521L127.564 28.4618H127.521ZM134.919 26.5048H131.553V31.0529H134.954V30.3328H132.347V29.1155H134.629V28.3953H132.347V27.2211H134.919V26.5009V26.5048ZM139.201 27.2446H140.645V26.5048H136.954V27.2446H138.394V31.0529H139.201V27.2485V27.2446ZM142.903 26.5048V31.0529H143.686V26.5087L142.903 26.5048ZM149.459 29.6361L147.029 26.5048H146.289V31.0529H147.072V27.816L149.577 31.0529H150.246V26.5087H149.463V29.64L149.459 29.6361ZM156.849 30.4189V28.501H154.912V29.1938H156.086V30.0666C155.938 30.1769 155.773 30.2616 155.597 30.3171C155.399 30.3806 155.193 30.4123 154.986 30.411C154.769 30.4143 154.553 30.373 154.352 30.2897C154.169 30.2103 154.004 30.0944 153.867 29.9492C153.728 29.7981 153.62 29.6212 153.55 29.4286C153.476 29.2199 153.439 29.0001 153.44 28.7789C153.439 28.5649 153.478 28.3527 153.553 28.1526C153.626 27.964 153.732 27.7903 153.867 27.6399C153.996 27.4925 154.154 27.3738 154.332 27.2915C154.515 27.2051 154.714 27.1609 154.916 27.1624C155.047 27.1612 155.178 27.173 155.307 27.1976C155.527 27.2389 155.736 27.3241 155.921 27.4481C156.014 27.5103 156.103 27.5783 156.188 27.6516L156.696 27.0449C156.582 26.9503 156.462 26.8627 156.336 26.7827C156.212 26.7065 156.081 26.6423 155.945 26.5909C155.798 26.5385 155.648 26.4979 155.495 26.4696C155.315 26.4415 155.133 26.4284 154.951 26.4304C154.627 26.4273 154.306 26.4913 154.008 26.6183C153.728 26.7364 153.475 26.9095 153.264 27.1271C153.053 27.3424 152.888 27.598 152.778 27.8786C152.664 28.1676 152.605 28.4758 152.606 28.7867C152.602 29.1051 152.66 29.4213 152.775 29.7182C152.883 29.9951 153.046 30.2478 153.252 30.4619C153.463 30.6761 153.716 30.844 153.996 30.9551C154.304 31.0792 154.634 31.1404 154.966 31.1351C155.158 31.1351 155.35 31.1168 155.538 31.0803C155.711 31.0436 155.882 30.9925 156.047 30.9277C156.2 30.8647 156.348 30.7887 156.489 30.7007C156.625 30.6168 156.755 30.5253 156.88 30.4267L156.849 30.4189ZM159.98 31.049V30.1566H159.119V31.049H159.98Z" fill="white"/>
<path fill-rule="evenodd" clip-rule="evenodd" d="M45.3099 11.2791C44.8044 11.2575 44.3032 11.3811 43.8656 11.6353C43.6833 11.7491 43.5349 11.9097 43.4357 12.1004C43.3366 12.2911 43.2904 12.5049 43.302 12.7195C43.2919 12.9377 43.3386 13.1548 43.4373 13.3496C43.5361 13.5444 43.6837 13.7103 43.8656 13.8311C44.6196 14.225 45.4283 14.5034 46.265 14.6569C47.2718 14.8527 48.2192 15.2802 49.0322 15.9055C49.3512 16.204 49.6002 16.5693 49.7612 16.9753C49.9223 17.3814 49.9915 17.818 49.9638 18.254C49.9778 18.7388 49.8791 19.2203 49.6753 19.6604C49.4716 20.1006 49.1683 20.4874 48.7895 20.7903C47.9072 21.4719 46.8111 21.8173 45.6974 21.7649C43.8558 21.775 42.079 21.0853 40.7266 19.8353L41.9908 18.3166C43.1963 19.3603 44.4488 19.8822 45.7483 19.8822C46.2951 19.9105 46.8366 19.7638 47.2944 19.4634C47.4744 19.3401 47.6208 19.1739 47.7206 18.9799C47.8203 18.7858 47.8703 18.57 47.8658 18.3518C47.874 18.1424 47.8291 17.9343 47.7354 17.7468C47.6416 17.5593 47.502 17.3985 47.3296 17.2794C46.7573 16.9383 46.1292 16.7011 45.4743 16.5788C44.7974 16.4261 44.1307 16.2314 43.4782 15.9956C43.0405 15.83 42.6312 15.5976 42.2648 15.3067C41.5603 14.7705 41.2041 13.9485 41.2041 12.8447C41.1797 12.353 41.277 11.8629 41.4873 11.4178C41.6976 10.9727 42.0144 10.5863 42.4096 10.2928C43.2769 9.67451 44.3238 9.35947 45.3882 9.39644C46.1624 9.40301 46.9304 9.5352 47.6623 9.78785C48.3751 10.0143 49.039 10.3728 49.6193 10.8446L48.543 12.3672C48.1243 12.0107 47.6366 11.7442 47.1104 11.5844C46.5361 11.386 45.9332 11.2829 45.3256 11.2791H45.3099ZM62.4066 9.71348V11.6079H56.0501V14.7705H61.7725V16.5631H56.0501V19.757H62.6258V21.6514H54.0344V9.71348H62.4066ZM72.2191 21.6514H69.9646L65.1816 9.71348H67.4362L71.1075 18.6297L74.7789 9.71348H77.0334L72.2348 21.6514H72.2191ZM88.7052 9.71348V11.6079H82.337V14.7705H88.0555V16.5631H82.337V19.757H88.9087V21.6514H80.3213V9.71348H88.7052ZM102.013 9.71348H104.029V21.6514H101.845L95.0812 12.9426V21.6514H93.0655V9.71348H95.0812L102.013 18.6297V9.71348ZM114.37 19.8235C114.985 19.8389 115.597 19.72 116.162 19.4752C116.739 19.1853 117.267 18.8076 117.728 18.3557L119.024 19.6865C118.458 20.3525 117.753 20.886 116.958 21.2493C116.163 21.6125 115.298 21.7965 114.425 21.7884C113.597 21.8145 112.773 21.6737 112.001 21.3744C111.229 21.0752 110.525 20.6236 109.931 20.0466C108.781 18.8596 108.14 17.2696 108.147 15.6165C108.153 13.9635 108.806 12.3786 109.966 11.2008C110.573 10.6115 111.292 10.1504 112.081 9.84512C112.87 9.53982 113.712 9.39654 114.558 9.42384C115.434 9.40608 116.303 9.58051 117.104 9.93485C117.906 10.2892 118.619 10.8148 119.196 11.4748L117.928 12.8447C117.461 12.3722 116.915 11.9853 116.315 11.7018C115.748 11.4749 115.141 11.3644 114.53 11.377C113.971 11.3625 113.414 11.4588 112.892 11.6603C112.37 11.8618 111.893 12.1646 111.489 12.5512C111.085 12.9347 110.766 13.3994 110.554 13.9148C110.343 14.4302 110.242 14.9846 110.26 15.5415C110.245 16.1043 110.346 16.6641 110.556 17.1865C110.766 17.7088 111.081 18.1827 111.481 18.5788C111.854 18.9692 112.303 19.2789 112.801 19.4889C113.298 19.6989 113.834 19.8048 114.374 19.8L114.37 19.8235ZM125.756 18.9194C126.041 19.2209 126.386 19.4611 126.767 19.6252C127.149 19.7894 127.56 19.874 127.975 19.874C128.39 19.874 128.801 19.7894 129.183 19.6252C129.565 19.4611 129.909 19.2209 130.194 18.9194C130.774 18.1829 131.065 17.2601 131.012 16.3243V9.71348H133.028V16.4065C133.028 18.1287 132.556 19.453 131.611 20.3793C130.612 21.2768 129.316 21.7733 127.973 21.7733C126.63 21.7733 125.334 21.2768 124.335 20.3793C123.39 19.4504 122.918 18.1261 122.918 16.4065V9.71348H124.934V16.3243C124.883 17.2606 125.175 18.1832 125.756 18.9194ZM142.978 21.6592H137.772V9.71348H142.418C143.127 9.69968 143.833 9.79742 144.512 10.0031C145.008 10.1432 145.458 10.4134 145.815 10.7859C146.343 11.3507 146.637 12.095 146.637 12.8682C146.666 13.2616 146.601 13.6562 146.446 14.0191C146.292 14.382 146.052 14.7027 145.749 14.9544C145.607 15.064 145.458 15.1634 145.303 15.2519C145.224 15.291 145.083 15.3576 144.876 15.4476C145.56 15.5744 146.183 15.9256 146.645 16.4457C147.087 16.97 147.321 17.6387 147.303 18.3244C147.308 19.1395 147.003 19.926 146.449 20.5241C145.776 21.2626 144.625 21.6331 142.997 21.6357L142.978 21.6592ZM139.768 14.6726H142.332C143.788 14.6726 144.516 14.1781 144.516 13.1892C144.537 12.9565 144.5 12.7222 144.408 12.5075C144.316 12.2929 144.171 12.1047 143.987 11.9602C143.493 11.6677 142.921 11.5313 142.347 11.5688H139.788V14.6569L139.768 14.6726ZM139.768 19.7961H142.927C143.514 19.8313 144.1 19.7111 144.625 19.4478C145.017 19.2129 145.216 18.7745 145.216 18.1248C145.216 17.0654 144.368 16.5357 142.672 16.5357H139.788V19.7961H139.768ZM159.796 9.71348V11.6079H153.424V14.7705H159.147V16.5631H153.424V19.757H160V21.6514H151.409V9.71348H159.796Z" fill="white"/>
<path fill-rule="evenodd" clip-rule="evenodd" d="M15.2462 32.5246L6.06375 27.2172C6.03229 27.201 6.00605 27.1762 5.98804 27.1457C5.97004 27.1153 5.96101 27.0803 5.96199 27.0449V18.4653C5.96146 18.43 5.97068 18.3953 5.98864 18.3649C6.00659 18.3345 6.03258 18.3097 6.06375 18.2931C6.09422 18.2759 6.1286 18.2669 6.16356 18.2669C6.19852 18.2669 6.2329 18.2759 6.26337 18.2931L8.88971 19.8118C8.92015 19.8288 8.94534 19.8539 8.96259 19.8842C8.97983 19.9146 8.98846 19.9491 8.98756 19.984V25.3149C8.98826 25.35 8.99799 25.3842 9.01582 25.4144C9.03365 25.4446 9.05897 25.4696 9.08932 25.4871L15.4379 29.1546C15.4688 29.1715 15.4946 29.1964 15.5125 29.2268C15.5304 29.2571 15.5398 29.2916 15.5397 29.3268V32.3524C15.539 32.3875 15.5293 32.4217 15.5114 32.4519C15.4936 32.4821 15.4683 32.5071 15.4379 32.5246C15.4084 32.5404 15.3755 32.5486 15.342 32.5486C15.3086 32.5486 15.2757 32.5404 15.2462 32.5246Z" fill="white"/>
<path fill-rule="evenodd" clip-rule="evenodd" d="M15.438 10.9151L10.7803 13.6001C10.7503 13.6183 10.7255 13.6438 10.7083 13.6743C10.6911 13.7048 10.682 13.7393 10.682 13.7743C10.682 13.8093 10.6911 13.8438 10.7083 13.8743C10.7255 13.9048 10.7503 13.9304 10.7803 13.9485L31.8301 26.1017C31.8616 26.1179 31.8878 26.1426 31.9058 26.1731C31.9238 26.2036 31.9328 26.2385 31.9319 26.2739C31.9328 26.3088 31.9241 26.3433 31.9069 26.3736C31.8897 26.4039 31.8645 26.429 31.834 26.4461C28.3427 28.4814 24.8539 30.5089 21.3678 32.5286C21.3381 32.5478 21.3034 32.558 21.268 32.558C21.2326 32.558 21.1979 32.5478 21.1682 32.5286C21.1377 32.5115 21.1126 32.4864 21.0953 32.4561C21.0781 32.4257 21.0694 32.3912 21.0703 32.3563V29.3347C21.0694 29.2998 21.0781 29.2653 21.0953 29.235C21.1126 29.2046 21.1377 29.1796 21.1682 29.1625L25.8416 26.4657C25.872 26.4486 25.8972 26.4235 25.9145 26.3932C25.9317 26.3628 25.9403 26.3283 25.9394 26.2935C25.9399 26.2586 25.9311 26.2243 25.9139 26.1941C25.8967 26.1638 25.8717 26.1387 25.8416 26.1212L4.7839 13.9602C4.75283 13.9435 4.72688 13.9186 4.70879 13.8883C4.6907 13.858 4.68115 13.8233 4.68115 13.788C4.68115 13.7527 4.6907 13.7181 4.70879 13.6877C4.72688 13.6574 4.75283 13.6326 4.7839 13.6158C8.27003 11.5883 11.7575 9.56604 15.2462 7.54899C15.2759 7.52978 15.3106 7.51956 15.346 7.51956C15.3814 7.51956 15.4161 7.52978 15.4458 7.54899C15.4767 7.56589 15.5025 7.59081 15.5204 7.62112C15.5383 7.65143 15.5477 7.68601 15.5476 7.72121V10.7429C15.5469 10.7789 15.5364 10.814 15.517 10.8444C15.4977 10.8748 15.4703 10.8993 15.438 10.9151Z" fill="white"/>
<path fill-rule="evenodd" clip-rule="evenodd" d="M16.5025 35.8359C16.5461 35.8607 16.5954 35.8735 16.6456 35.8731C16.6957 35.8727 16.7448 35.8592 16.7881 35.8338C16.8313 35.8084 16.8671 35.7721 16.8918 35.7285C16.9166 35.6849 16.9295 35.6356 16.9291 35.5854V22.9078C16.9287 22.8728 16.9376 22.8382 16.9548 22.8077C16.972 22.7772 16.9969 22.7517 17.027 22.7339C17.0572 22.716 17.0915 22.7064 17.1265 22.706C17.1615 22.7056 17.1961 22.7145 17.2266 22.7316L19.5946 24.0977C19.6248 24.116 19.6497 24.1419 19.6668 24.1728C19.684 24.2037 19.6928 24.2385 19.6925 24.2738V35.7655C19.6928 35.8006 19.7023 35.835 19.7202 35.8653C19.7381 35.8955 19.7636 35.9205 19.7942 35.9377C19.8247 35.9549 19.8591 35.9639 19.894 35.9639C19.929 35.9639 19.9634 35.9549 19.9938 35.9377L32.8241 28.5284C32.855 28.5115 32.8808 28.4866 32.8987 28.4563C32.9166 28.426 32.926 28.3914 32.9259 28.3562V22.1289C32.9259 21.9784 32.9857 21.834 33.0921 21.7276C33.1986 21.6211 33.3429 21.5613 33.4934 21.5613H35.1217C35.2722 21.5613 35.4166 21.6211 35.523 21.7276C35.6294 21.834 35.6892 21.9784 35.6892 22.1289V28.1096C35.6863 28.184 35.7007 28.2581 35.7313 28.326C35.7618 28.3939 35.8077 28.4538 35.8654 28.501L36.6873 29.2055C36.712 29.2255 36.7311 29.2514 36.7427 29.2809C36.7544 29.3104 36.7582 29.3424 36.7539 29.3738C36.7521 29.406 36.7421 29.4373 36.725 29.4647C36.7079 29.492 36.6842 29.5146 36.656 29.5304L18.4125 40.0436C18.3821 40.0607 18.3477 40.0697 18.3127 40.0697C18.2778 40.0697 18.2434 40.0607 18.2129 40.0436L18.0681 39.9614L17.027 39.3625L16.7295 39.1903L0.129943 29.6048C0.103049 29.5893 0.0801135 29.5679 0.0629551 29.5421C0.0457966 29.5162 0.0348874 29.4868 0.0310894 29.456C0.0272913 29.4253 0.030709 29.394 0.0410737 29.3648C0.0514384 29.3356 0.068465 29.3092 0.0908029 29.2877L0.783593 28.6028C0.831428 28.5567 0.869307 28.5013 0.89489 28.4401C0.920473 28.3788 0.933214 28.313 0.932326 28.2466V12.0932C0.933316 11.9823 0.895986 11.8745 0.826646 11.7879L0.043833 10.7781C0.025251 10.7562 0.0120353 10.7304 0.00523938 10.7025C-0.00155658 10.6746 -0.001744 10.6456 0.0046929 10.6176C0.00978176 10.5889 0.0212069 10.5618 0.0381353 10.5381C0.0550637 10.5144 0.0770684 10.4947 0.102545 10.4806L18.2129 0.0261531C18.2434 0.00900748 18.2778 0 18.3127 0C18.3477 0 18.3821 0.00900748 18.4125 0.0261531L36.5738 10.4963C36.6036 10.5125 36.6286 10.5362 36.6464 10.565C36.6643 10.5938 36.6743 10.6268 36.6756 10.6607C36.6781 10.6945 36.6714 10.7283 36.6563 10.7586C36.6411 10.789 36.618 10.8146 36.5895 10.8329L35.9123 11.3143C35.8487 11.3582 35.7964 11.4166 35.7596 11.4846C35.7229 11.5527 35.7028 11.6284 35.701 11.7057V17.933C35.7015 18.0079 35.6872 18.0821 35.6589 18.1514C35.6306 18.2207 35.5889 18.2837 35.5361 18.3368C35.4834 18.39 35.4207 18.4321 35.3515 18.4609C35.2824 18.4897 35.2083 18.5045 35.1334 18.5045H33.5052C33.4303 18.5045 33.3562 18.4897 33.2871 18.4609C33.218 18.4321 33.1552 18.39 33.1025 18.3368C33.0497 18.2837 33.008 18.2207 32.9797 18.1514C32.9514 18.0821 32.9371 18.0079 32.9377 17.933V11.7096C32.9377 11.6744 32.9283 11.6399 32.9104 11.6095C32.8925 11.5792 32.8668 11.5543 32.8359 11.5374C28.5983 9.09505 24.3645 6.6605 20.1347 4.23377C20.0911 4.20948 20.042 4.19686 19.9921 4.19715C19.9421 4.19745 19.8931 4.21064 19.8498 4.23545C19.8065 4.26026 19.7703 4.29585 19.7448 4.33876C19.7193 4.38167 19.7053 4.43045 19.7042 4.48036V17.1502C19.7051 17.1851 19.6965 17.2196 19.6792 17.2499C19.662 17.2803 19.6368 17.3053 19.6063 17.3224C19.5766 17.3416 19.5419 17.3518 19.5065 17.3518C19.4711 17.3518 19.4365 17.3416 19.4067 17.3224L17.0583 15.9564C17.0278 15.9393 17.0026 15.9143 16.9854 15.8839C16.9682 15.8536 16.9595 15.8191 16.9604 15.7842V4.30422C16.961 4.26893 16.9517 4.23418 16.9338 4.2038C16.9158 4.17341 16.8898 4.14857 16.8587 4.13201C16.8282 4.11487 16.7938 4.10586 16.7589 4.10586C16.7239 4.10586 16.6895 4.11487 16.659 4.13201L3.79742 11.5413C3.76699 11.5584 3.74179 11.5835 3.72454 11.6138C3.7073 11.6442 3.69867 11.6787 3.69957 11.7136V28.3562C3.69867 28.3911 3.7073 28.4255 3.72454 28.4559C3.74179 28.4862 3.76699 28.5113 3.79742 28.5284L16.5025 35.8359Z" fill="url(#paint0_linear_20_24)"/>
<path fill-rule="evenodd" clip-rule="evenodd" d="M21.3754 7.53726L30.5735 12.8447C30.6044 12.8616 30.6301 12.8865 30.648 12.9169C30.6659 12.9472 30.6753 12.9817 30.6752 13.017V21.5966C30.6745 21.6316 30.6648 21.6659 30.647 21.6961C30.6291 21.7262 30.6038 21.7513 30.5735 21.7688C30.543 21.7859 30.5086 21.795 30.4737 21.795C30.4387 21.795 30.4043 21.7859 30.3739 21.7688L27.7475 20.2501C27.7166 20.2332 27.6909 20.2083 27.673 20.178C27.6551 20.1477 27.6457 20.1131 27.6457 20.0779V14.7548C27.6458 14.7201 27.6368 14.6859 27.6197 14.6557C27.6025 14.6255 27.5778 14.6003 27.5479 14.5826L21.1758 10.9073C21.1454 10.8902 21.1202 10.8651 21.1029 10.8348C21.0857 10.8044 21.077 10.7699 21.0779 10.735V7.70948C21.0783 7.67478 21.0876 7.64076 21.1051 7.61077C21.1225 7.58079 21.1475 7.55588 21.1775 7.53849C21.2076 7.5211 21.2416 7.51185 21.2763 7.51163C21.311 7.51142 21.3452 7.52025 21.3754 7.53726Z" fill="white"/>
<defs>
<linearGradient id="paint0_linear_20_24" x1="27.0196" y1="35.0766" x2="9.64113" y2="4.97353" gradientUnits="userSpaceOnUse">
<stop stop-color="white"/>
<stop offset="1" stop-color="white"/>
</linearGradient>
</defs>
</svg>
