<svg width="160" height="29" viewBox="0 0 160 29" fill="none" xmlns="http://www.w3.org/2000/svg">
<g clip-path="url(#clip0_20_74)">
<path d="M44.9595 10.1682C46.0062 10.9658 46.6542 12.0125 46.9034 13.3583H43.6137C43.4143 12.9097 43.0654 12.5109 42.6168 12.2617C42.1682 12.0125 41.62 11.863 40.972 11.863C39.9751 11.863 39.1776 12.2119 38.5795 12.8598C37.9813 13.5078 37.6823 14.405 37.6823 15.5514C37.6823 16.7975 37.9813 17.7446 38.6293 18.3925C39.2773 19.0405 40.1246 19.3894 41.3209 19.3894C42.0686 19.3894 42.7165 19.1901 43.2648 18.7913C43.8131 18.3925 44.2119 17.7944 44.4611 17.0468H40.5234V14.8038H47.053V17.8941C46.8038 18.6418 46.405 19.3396 45.9066 19.9876C45.3583 20.6355 44.7103 21.134 43.8629 21.5327C43.0156 21.9315 42.0686 22.1309 41.0218 22.1309C39.7259 22.1309 38.5795 21.8318 37.6324 21.2835C36.6355 20.7352 35.8879 19.9377 35.3894 18.9408C34.8411 17.9439 34.5919 16.7975 34.5919 15.5514C34.5919 14.3053 34.8411 13.1589 35.3894 12.162C35.9377 11.1651 36.6854 10.3676 37.6324 9.81934C38.5795 9.27105 39.7259 8.97198 41.0218 8.97198C42.567 9.02183 43.9128 9.37074 44.9595 10.1682Z" fill="white"/>
<path d="M53.4331 12.2617C54.0312 11.9128 54.729 11.7134 55.4269 11.7134V15.0529H54.5297C53.6823 15.0529 53.0842 15.2523 52.5857 15.6012C52.1371 15.9501 51.8879 16.5483 51.8879 17.3956V22.0311H48.8474V11.8629H51.9876V13.757C52.3365 13.1589 52.8349 12.6604 53.4331 12.2617Z" fill="white"/>
<path d="M62.6542 12.2617C63.2025 12.6106 63.6511 13.109 63.9003 13.7071V11.8629H66.9907V22.0311H63.9003V20.1869C63.6511 20.785 63.2025 21.2835 62.6542 21.6324C62.1059 21.9813 61.4081 22.1807 60.6605 22.1807C59.8131 22.1807 59.0654 21.9813 58.4175 21.5327C57.7695 21.1339 57.2212 20.486 56.8723 19.7383C56.4735 18.9408 56.2742 18.0436 56.2742 16.947C56.2742 15.9003 56.4735 14.9533 56.8723 14.1557C57.2711 13.3582 57.7695 12.7601 58.4175 12.3614C59.0654 11.9626 59.8131 11.7134 60.6605 11.7134C61.4081 11.7134 62.0561 11.9128 62.6542 12.2617ZM60.0125 15.1028C59.6137 15.5514 59.4144 16.1495 59.4144 16.947C59.4144 17.7445 59.6137 18.3427 60.0125 18.7913C60.4112 19.2399 60.9595 19.4392 61.6075 19.4392C62.2555 19.4392 62.8038 19.19 63.2025 18.7414C63.6013 18.2928 63.8505 17.6947 63.8505 16.947C63.8505 16.1994 63.6511 15.6012 63.2025 15.1526C62.8038 14.704 62.2555 14.5047 61.6075 14.5047C60.9595 14.4548 60.4112 14.6542 60.0125 15.1028Z" fill="white"/>
<path d="M77.7072 12.3614C78.3551 12.7601 78.9034 13.3582 79.2523 14.1557C79.6511 14.9533 79.8505 15.8505 79.8505 16.947C79.8505 17.9938 79.6511 18.9408 79.2523 19.7383C78.8536 20.5358 78.3551 21.1339 77.7072 21.5327C77.0592 21.9314 76.3115 22.1807 75.4642 22.1807C74.6667 22.1807 74.0187 21.9813 73.4704 21.6324C72.9221 21.2835 72.5234 20.785 72.2243 20.1869V26.866H69.0841V11.8629H72.2243V13.7071C72.4735 13.109 72.8723 12.6106 73.4704 12.2617C74.0187 11.9128 74.7165 11.7134 75.4642 11.7134C76.3115 11.7134 77.0592 11.9128 77.7072 12.3614ZM72.8723 15.1028C72.4735 15.5514 72.2243 16.1495 72.2243 16.8972C72.2243 17.6448 72.4237 18.243 72.8723 18.6916C73.271 19.1402 73.8193 19.3894 74.4673 19.3894C75.1153 19.3894 75.6635 19.19 76.0623 18.7414C76.4611 18.2928 76.6604 17.6947 76.6604 16.8972C76.6604 16.0997 76.4611 15.5015 76.0623 15.0529C75.6635 14.6043 75.1153 14.405 74.4673 14.405C73.8193 14.4548 73.271 14.6542 72.8723 15.1028Z" fill="white"/>
<path d="M90.7165 12.9097C91.4143 13.7072 91.7632 14.7539 91.7632 16.0997V22.0312H88.623V16.4486C88.623 15.7508 88.4236 15.2523 88.0747 14.8536C87.7258 14.4548 87.2274 14.2555 86.6292 14.2555C85.9813 14.2555 85.4828 14.4548 85.1339 14.8536C84.785 15.2523 84.5856 15.8505 84.5856 16.5483V21.9315H81.4454V8.52338H84.5856V13.7072C84.8847 13.109 85.3333 12.6106 85.8816 12.2617C86.4299 11.9128 87.1277 11.7134 87.9252 11.7134C89.1214 11.7134 90.0186 12.1122 90.7165 12.9097Z" fill="white"/>
<path d="M94.0063 7.82555C94.3552 7.52649 94.8038 7.37695 95.352 7.37695C95.9003 7.37695 96.3489 7.52649 96.6978 7.82555C97.0468 8.12462 97.1963 8.52337 97.1963 9.02181C97.1963 9.47041 97.0468 9.86916 96.6978 10.1682C96.3489 10.4673 95.9003 10.6168 95.352 10.6168C94.8038 10.6168 94.3552 10.4673 94.0063 10.1682C93.6573 9.86916 93.5078 9.47041 93.5078 9.02181C93.5078 8.52337 93.7072 8.12462 94.0063 7.82555ZM96.9471 11.8629V22.0312H93.8069V11.8629H96.9471Z" fill="white"/>
<path d="M106.966 12.81C107.863 13.5576 108.411 14.5047 108.66 15.8006H105.371C105.271 15.352 105.072 15.0031 104.773 14.8037C104.474 14.5545 104.075 14.4548 103.626 14.4548C103.078 14.4548 102.629 14.6542 102.28 15.1028C101.931 15.5514 101.732 16.1495 101.732 16.9969C101.732 17.8442 101.931 18.4424 102.28 18.891C102.629 19.3396 103.078 19.5389 103.626 19.5389C104.075 19.5389 104.474 19.4392 104.773 19.19C105.072 18.9408 105.271 18.5919 105.371 18.1931H108.66C108.411 19.4392 107.863 20.4361 106.966 21.1838C106.069 21.9314 104.972 22.2804 103.676 22.2804C102.679 22.2804 101.782 22.081 101.034 21.6324C100.287 21.2336 99.6386 20.5857 99.2399 19.838C98.7913 19.0405 98.5919 18.1433 98.5919 17.0467C98.5919 16 98.7913 15.0529 99.2399 14.2554C99.6885 13.4579 100.287 12.8598 101.034 12.461C101.832 12.0623 102.679 11.8131 103.676 11.8131C104.972 11.7134 106.069 12.0623 106.966 12.81Z" fill="white"/>
<path d="M117.084 12.6604C117.832 13.3084 118.33 14.1557 118.53 15.2025H115.589C115.489 14.8037 115.29 14.4548 114.991 14.2056C114.692 13.9564 114.343 13.8567 113.894 13.8567C113.545 13.8567 113.296 13.9564 113.097 14.1059C112.897 14.2554 112.847 14.4548 112.847 14.7539C112.847 15.0529 112.997 15.3022 113.346 15.4517C113.695 15.6012 114.193 15.7508 114.941 15.9501C115.738 16.1495 116.336 16.299 116.835 16.4984C117.333 16.6978 117.782 16.9969 118.131 17.3956C118.48 17.8442 118.679 18.3925 118.679 19.0903C118.679 19.6885 118.53 20.1869 118.181 20.6355C117.882 21.0841 117.433 21.433 116.835 21.6822C116.237 21.9314 115.539 22.081 114.741 22.081C113.346 22.081 112.249 21.7819 111.452 21.1838C110.604 20.5857 110.106 19.6885 109.956 18.5919H112.947C112.997 19.0405 113.196 19.3395 113.495 19.5888C113.794 19.838 114.243 19.9377 114.741 19.9377C115.09 19.9377 115.34 19.838 115.539 19.6885C115.738 19.5389 115.788 19.2897 115.788 19.0405C115.788 18.6916 115.639 18.4424 115.29 18.2928C114.941 18.1433 114.393 17.9938 113.645 17.7944C112.897 17.6448 112.249 17.4455 111.801 17.2959C111.302 17.0966 110.903 16.7975 110.555 16.3987C110.206 16 110.006 15.4517 110.006 14.7539C110.006 13.8567 110.355 13.109 111.053 12.5607C111.751 12.0124 112.748 11.7134 113.994 11.7134C115.24 11.7134 116.287 12.0124 117.084 12.6604Z" fill="white"/>
<path d="M127.9 9.17133V10.5171H122.268V14.9533H127.003V16.2492H122.268V22.0311H120.623V9.17133H127.9Z" fill="white"/>
<path d="M131.539 8.52338V22.0312H129.894V8.52338H131.539Z" fill="white"/>
<path d="M141.308 12.5109C142.056 12.9096 142.654 13.5078 143.103 14.3053C143.551 15.1028 143.751 16 143.751 17.0467C143.751 18.0934 143.551 18.9906 143.103 19.7881C142.654 20.5358 142.056 21.1339 141.308 21.5825C140.561 21.9813 139.713 22.1807 138.717 22.1807C137.769 22.1807 136.872 21.9813 136.125 21.5825C135.377 21.1838 134.779 20.5856 134.33 19.7881C133.882 18.9906 133.682 18.0934 133.682 17.0467C133.682 16 133.882 15.1028 134.33 14.3053C134.779 13.5078 135.377 12.9096 136.125 12.5109C136.872 12.1121 137.72 11.9128 138.717 11.9128C139.713 11.8629 140.561 12.0623 141.308 12.5109ZM137.122 13.757C136.623 14.0062 136.224 14.4548 135.875 15.0031C135.576 15.5514 135.427 16.2492 135.427 17.0467C135.427 17.8442 135.576 18.542 135.875 19.0903C136.174 19.6386 136.573 20.0374 137.122 20.3364C137.67 20.6355 138.168 20.7352 138.766 20.7352C139.364 20.7352 139.913 20.5856 140.411 20.3364C140.91 20.0872 141.308 19.6386 141.657 19.0903C141.956 18.542 142.106 17.8442 142.106 17.0467C142.106 16.2492 141.956 15.5514 141.657 15.0031C141.358 14.4548 140.96 14.0561 140.411 13.757C139.913 13.5078 139.364 13.3582 138.766 13.3582C138.168 13.3582 137.62 13.4579 137.122 13.757Z" fill="white"/>
<path d="M159.701 12.0125L156.81 22.0311H155.016L152.274 13.8567L149.483 22.0311H147.689L144.847 12.0125H146.542L148.685 20.4361L151.477 12.0125H153.221L156.013 20.4361L158.156 12.0125H159.701Z" fill="white"/>
<path d="M21.433 9.96886H19.9377C19.3894 9.96886 18.8909 10.4175 18.8411 10.9657V17.9439C18.8411 18.5421 18.3427 19.0405 17.7445 19.0405H10.2679C9.66976 19.0405 9.17132 18.5421 9.17132 17.9439V10.4175C9.17132 9.81933 9.66976 9.32088 10.2679 9.32088H16.299H17.7445C18.3427 9.32088 18.8411 8.82244 18.8411 8.22431V6.28039V1.7944C18.8411 1.29596 18.4922 0.847364 18.0436 0.697831C16.5981 0.249234 15.1028 0.0498565 13.5078 0.0997007C6.18066 0.398766 0.24919 6.38007 -3.09896e-05 13.7072C-0.249252 21.8318 6.38004 28.4112 14.4548 28.2118C21.7819 28.0125 27.8131 22.0312 28.0623 14.7041C28.1121 13.3583 27.9626 12.1122 27.6635 10.8661C27.514 10.3676 27.0654 9.96886 26.5171 9.96886H21.433Z" fill="white"/>
</g>
<defs>
<clipPath id="clip0_20_74">
<rect width="160" height="28.4112" fill="white"/>
</clipPath>
</defs>
</svg>
