<svg width="160" height="56" viewBox="0 0 160 56" fill="none" xmlns="http://www.w3.org/2000/svg">
<g clip-path="url(#clip0_20_44)">
<path fill-rule="evenodd" clip-rule="evenodd" d="M5.91675 0.846956C5.91675 0.846956 13.661 -3.0543 18.2942 6.59977C18.2942 6.59977 25.178 22.4703 38.0849 22.9329C38.0849 22.9329 22.6629 24.3221 16.11 5.93898C16.11 5.93898 13.5288 -1.13669 5.91675 0.846956Z" fill="white"/>
<path fill-rule="evenodd" clip-rule="evenodd" d="M49.2888 0.846956C49.2888 0.846956 41.5446 -3.0543 36.9114 6.59977C36.9114 6.59977 30.0275 22.4703 17.1206 22.9329C17.1206 22.9329 32.5426 24.3221 39.0956 5.93898C39.0956 5.93898 41.6768 -1.13669 49.2888 0.846956Z" fill="white"/>
<path fill-rule="evenodd" clip-rule="evenodd" d="M5.91675 54.4399C5.91675 54.4399 13.661 58.3415 18.2942 48.6877C18.2942 48.6877 25.178 32.8169 38.0849 32.3539C38.0849 32.3539 22.6629 30.9653 16.11 49.3482C16.11 49.3482 13.5288 56.4242 5.91675 54.4399Z" fill="white"/>
<path fill-rule="evenodd" clip-rule="evenodd" d="M49.2888 54.4399C49.2888 54.4399 41.5446 58.3415 36.9114 48.6877C36.9114 48.6877 30.0275 32.8169 17.1206 32.3539C17.1206 32.3539 32.5426 30.9653 39.0956 49.3482C39.0956 49.3482 41.6768 56.4242 49.2888 54.4399Z" fill="white"/>
<path fill-rule="evenodd" clip-rule="evenodd" d="M0.78014 49.3093C0.78014 49.3093 -3.12487 41.5725 6.53849 36.9434C6.53849 36.9434 22.4242 30.0662 22.8873 17.172C22.8873 17.172 24.2779 32.5795 5.87706 39.1259C5.87706 39.1259 -1.20574 41.7049 0.78014 49.3093Z" fill="white"/>
<path fill-rule="evenodd" clip-rule="evenodd" d="M0.78014 5.97882C0.78014 5.97882 -3.12487 13.7156 6.53849 18.3443C6.53849 18.3443 22.4242 25.2216 22.8873 38.1161C22.8873 38.1161 24.2779 22.7089 5.87706 16.1622C5.87706 16.1622 -1.20574 13.5835 0.78014 5.97882Z" fill="white"/>
<path fill-rule="evenodd" clip-rule="evenodd" d="M54.4249 49.3093C54.4249 49.3093 58.3302 41.5725 48.6668 36.9434C48.6668 36.9434 32.7808 30.0662 32.3177 17.172C32.3177 17.172 30.9274 32.5795 49.3279 39.1259C49.3279 39.1259 56.4111 41.7049 54.4249 49.3093Z" fill="white"/>
<path fill-rule="evenodd" clip-rule="evenodd" d="M54.4249 5.97882C54.4249 5.97882 58.3302 13.7156 48.6668 18.3443C48.6668 18.3443 32.7808 25.2216 32.3177 38.1161C32.3177 38.1161 30.9274 22.7089 49.3279 16.1622C49.3279 16.1622 56.4111 13.5835 54.4249 5.97882Z" fill="white"/>
<path fill-rule="evenodd" clip-rule="evenodd" d="M51.7402 42.4523C50.7662 41.4793 49.5634 40.8772 48.3047 40.6423V40.6404L39.1238 38.9219L40.6266 48.3111H40.6285C40.8639 49.5683 41.4667 50.7706 42.4402 51.7436C45.0082 54.3091 49.1722 54.3091 51.7402 51.7436C54.3085 49.1774 54.3081 45.0181 51.7402 42.4523Z" fill="white"/>
<path fill-rule="evenodd" clip-rule="evenodd" d="M3.63875 42.3315C4.61266 41.3585 5.81554 40.7563 7.07421 40.5215V40.5195L16.2551 38.801L14.7523 48.1903H14.7504C14.515 49.4474 13.9122 50.6498 12.9387 51.6227C10.3707 54.1883 6.20672 54.1883 3.63875 51.6227C1.07045 49.0566 1.07077 44.8973 3.63875 42.3315Z" fill="white"/>
<path fill-rule="evenodd" clip-rule="evenodd" d="M3.63875 12.9582C4.61266 13.9312 5.81554 14.5333 7.07421 14.7682V14.7702L16.2551 16.4886L14.7523 7.09941H14.7504C14.515 5.84227 13.9122 4.6399 12.9387 3.66693C10.3707 1.10142 6.20672 1.10142 3.63875 3.66693C1.07045 6.23307 1.07077 10.3924 3.63875 12.9582Z" fill="white"/>
<path fill-rule="evenodd" clip-rule="evenodd" d="M51.3835 12.9582C50.4096 13.9312 49.2067 14.5333 47.948 14.7682V14.7702L38.7671 16.4886L40.2699 7.09941H40.2718C40.5072 5.84227 41.11 4.6399 42.0836 3.66693C44.6515 1.10142 48.8155 1.10142 51.3835 3.66693C53.9518 6.23307 53.9514 10.3924 51.3835 12.9582Z" fill="white"/>
<path fill-rule="evenodd" clip-rule="evenodd" d="M31.6125 27.6436C31.6125 29.8557 29.8175 31.6489 27.6027 31.6489C25.3885 31.6489 23.5935 29.8557 23.5935 27.6436C23.5935 25.4312 25.3885 23.6376 27.6027 23.6376C29.8175 23.6376 31.6125 25.4312 31.6125 27.6436Z" fill="white"/>
<path fill-rule="evenodd" clip-rule="evenodd" d="M145.113 24.6871C145.084 24.7457 145.053 24.7879 145.023 24.8088H144.253C144.844 24.5517 145.29 24.1013 145.579 23.5894L145.113 24.6871ZM142.732 25.1059C142.681 25.082 142.629 25.056 142.58 25.036H142.889C142.836 25.0585 142.782 25.0808 142.732 25.1059ZM121.199 32.62C120.096 33.6871 118.72 34.057 118.126 33.4455C117.533 32.8333 117.949 31.4718 119.052 30.4048C120.156 29.3371 121.532 28.9675 122.125 29.5787C122.718 30.1908 122.303 31.5527 121.199 32.62ZM110.211 29.1151C110.079 28.9253 109.936 28.7433 109.78 28.5732H110.748C110.559 28.7513 110.378 28.9314 110.211 29.1151ZM105.115 26.0257C105.019 25.9999 104.943 25.9812 104.891 25.969L99.497 24.4596C98.1593 24.1004 97.3392 23.7228 96.9574 23.5217C97.8962 22.4466 99.8624 22.2804 100.988 22.2804C102.17 22.2804 103.097 22.4531 103.134 22.4595C105.223 22.8168 105.2 24.4715 105.094 25.1526C105.082 25.2267 105.074 25.3021 105.073 25.3778C105.068 25.6111 105.084 25.8272 105.115 26.0257ZM96.2741 32.295C96.136 32.295 96.049 32.2921 96.038 32.2917C96.0257 32.2911 96.0128 32.2908 95.9999 32.2908C94.1015 32.2608 93.3652 31.9361 93.1304 31.7911C93.0476 31.0388 92.737 30.4502 92.2988 30.0146L97.1061 31.3442C97.9384 31.5694 98.4541 31.7827 98.7672 31.9448C98.3202 32.1207 97.4502 32.295 96.2741 32.295ZM86.028 29.0548C86.2473 28.6969 86.3846 28.4172 86.4507 28.2723C86.5278 28.1315 86.5894 27.9952 86.6397 27.8637C87.2889 28.4108 88.0277 28.8006 88.6988 29.0178C88.7191 29.0236 88.7394 29.03 88.7601 29.0361L88.8288 29.0548H86.028ZM156.422 25.8752C155.946 25.1207 155.146 24.9168 154.912 24.872L154.775 24.8459H154.492L155.145 23.255C155.648 22.1296 155.33 21.3306 155.094 20.952C154.467 19.9494 153.28 19.8676 153.048 19.8612L153.02 19.8605L149.312 19.8972C147.713 19.8972 146.705 21.0616 146.36 21.7494L145.853 22.9428C145.872 22.8787 145.89 22.8139 145.904 22.7485C146.194 21.7826 145.875 21.1125 145.655 20.7942C145.201 20.1389 144.449 19.8827 143.897 19.8615L141.032 19.8608C135.504 19.8608 132.804 24.0118 132.516 24.4828C132.39 24.6742 132.281 24.755 132.225 24.7873H131.291C130.218 24.7873 129.403 25.2631 128.886 25.8865C127.292 24.9529 125.11 24.4193 122.556 24.4193C121.312 24.4193 120.031 24.5472 118.749 24.7995C118.056 24.9358 117.38 25.1078 116.725 25.3079C116.763 25.0708 116.784 24.8391 116.786 24.6217C116.88 22.667 116.265 20.9785 114.957 19.6018C111.721 16.1944 105.075 15.8262 102.368 15.8262C101.96 15.8262 101.694 15.8352 101.619 15.8388C87.2724 16.0875 85.3053 21.8239 85.0653 22.8742C84.858 23.591 84.8164 24.254 84.8976 24.8591C84.6226 24.8014 84.3981 24.7892 84.2975 24.7873H80.3696C80.3512 24.7873 80.3331 24.7876 80.3148 24.7879C78.9413 24.8388 78.0486 25.9249 77.6736 26.893C76.4646 29.0622 74.4848 29.232 73.9011 29.232C73.8615 29.232 73.836 29.2304 73.8386 29.2317C73.7963 29.2285 73.7505 29.2275 73.7128 29.2269C73.7086 29.0078 73.7679 28.6569 73.8595 28.3918L75.976 23.4457C76.4801 22.2801 76.2201 21.4511 75.9128 20.9614C75.2569 19.9143 74.0259 19.8083 73.7857 19.798C73.7637 19.7967 73.7421 19.7961 73.7202 19.7961H70.5505C68.5743 19.7961 67.4833 21.1476 67.1563 21.9324L65.2842 26.296C65.1846 26.5418 65.1124 26.7812 65.0588 27.0138C63.2842 25.1056 59.6794 24.6845 56.8602 24.6845C56.0746 24.6845 55.5519 24.7199 55.5303 24.7215C52.0693 24.9609 49.2737 25.7867 47.172 27.1826L50.6272 18.8479L50.6455 18.8009C51.057 17.7045 50.7787 16.949 50.4727 16.5082C50.0402 15.8842 49.2827 15.5262 48.3949 15.5262C48.3539 15.5262 48.3194 15.5269 48.2923 15.5279H44.4696C42.4579 15.5279 41.3605 16.9094 41.0367 17.7084L33.8836 34.7145C33.2538 36.0496 33.5063 36.9595 33.832 37.4898C34.3312 38.3023 35.2238 38.6084 35.9253 38.6235H39.7841C41.1895 38.6235 42.2122 37.8658 42.8604 37.0626C42.8891 37.252 42.9142 37.3686 42.9197 37.3947C43.07 38.0723 43.6714 38.5546 44.3664 38.5546H50.3611C50.7755 38.5546 51.1715 38.3809 51.4521 38.0758C51.7326 37.7707 51.8723 37.3622 51.8375 36.9492C51.2925 30.5575 55.1601 29.7627 55.5761 29.6969C55.8473 29.6634 56.0962 29.6457 56.3162 29.6457C56.7738 29.6457 56.9889 29.7201 57.0666 29.7556C57.0714 29.8264 57.0582 29.9402 57.0395 30.004L55.0333 34.8279C54.4628 36.0715 54.6776 36.9356 54.9604 37.4427C55.3723 38.1812 56.1107 38.514 56.6645 38.5794C56.7222 38.5858 56.7799 38.5894 56.838 38.5894H60.9036C62.1551 38.5894 63.0491 37.8803 63.4967 37.0706C63.547 37.1988 63.6021 37.3174 63.6618 37.4173C64.1178 38.1828 64.9137 38.5204 65.5064 38.5816C65.5571 38.5871 65.6077 38.5894 65.658 38.5894H69.207C71.1164 38.5894 72.2035 36.7732 72.3213 36.5664C72.35 36.5158 72.3751 36.464 72.398 36.4108L73.2832 34.3141C73.3132 34.3108 73.3529 34.3083 73.4019 34.3083C73.6399 34.3083 73.8902 34.3682 73.9556 34.3882C74.0262 34.4104 74.0982 34.4278 74.171 34.4397C74.6419 34.5164 74.8747 34.6569 74.936 34.7635C75.0382 34.9407 74.9763 35.3473 74.9018 35.5435C74.8805 35.5941 74.8625 35.6456 74.847 35.6981C74.5516 36.7149 74.9031 37.3931 75.1392 37.7069C75.5458 38.2472 76.2188 38.5578 76.9857 38.5575C77.0338 38.5575 77.0747 38.5562 77.1083 38.5546H81.0587C82.4845 38.5546 83.4568 37.4721 83.8608 36.5364C83.8728 36.5107 83.8818 36.4862 83.8931 36.4601C86.642 38.4041 91.4793 38.7762 94.7655 38.7762C95.2966 38.7762 95.6475 38.7646 95.7391 38.7611C103.795 38.6593 107.487 36.6653 109.097 35.2542C110.35 37.4936 113.512 38.8806 117.64 38.8806C118.884 38.8806 120.166 38.7527 121.448 38.5004C123.798 38.0388 125.961 37.1882 127.702 36.0709L126.987 37.9009H125.71C125.665 37.9009 125.621 37.9015 125.594 37.9028C123.999 37.9534 123.017 39.0675 122.761 40.1042C122.46 41.1536 122.819 41.8624 123.062 42.1939C123.563 42.8763 124.378 43.1253 124.989 43.1318L127.328 43.1324C134.263 43.1324 136.211 38.445 136.428 37.8558L139.574 29.9112H140.958C141.518 29.9112 141.988 29.7804 142.379 29.5719C142.568 29.6599 142.762 29.7204 142.947 29.7565L141.809 32.476L141.786 32.5331C141.142 34.269 141.59 35.5129 142.078 36.2507C143.596 38.5433 147.407 38.7885 147.836 38.8091L149.423 38.8104C151.098 38.8104 152.083 37.4801 152.284 36.271C152.418 35.5474 152.261 34.8711 151.841 34.3669C151.526 33.9887 151.134 33.7867 150.789 33.6797L152.303 29.9112H153.71C155.574 29.9112 156.492 28.4833 156.678 27.4729C156.806 26.9069 156.717 26.3424 156.422 25.8752Z" fill="white"/>
<path fill-rule="evenodd" clip-rule="evenodd" d="M35.2362 35.319L42.4025 18.2816C42.4025 18.2816 42.9189 17.0077 44.4694 17.0077H48.3286C48.3286 17.0077 49.775 16.9046 49.2583 18.2816L42.1958 35.319C42.1958 35.319 41.4722 37.1435 39.7839 37.1435H35.9254C35.9254 37.1435 34.3752 37.1091 35.2362 35.319Z" fill="#09090B"/>
<path fill-rule="evenodd" clip-rule="evenodd" d="M50.3608 37.0747H44.366C44.366 37.0747 42.1612 27.1277 55.6322 26.1983C55.6322 26.1983 66.5539 25.4408 64.3487 31.1202L62.316 36.0762C62.316 36.0762 62.04 37.1091 60.9032 37.1091H56.8379C56.8379 37.1091 55.6667 36.9716 56.39 35.4225L58.423 30.5348C58.423 30.5348 59.4907 27.7125 55.3906 28.2289C55.3906 28.2289 49.6716 28.9861 50.3608 37.0747Z" fill="#09090B"/>
<path fill-rule="evenodd" clip-rule="evenodd" d="M65.0035 35.319L67.0707 30.5347C67.0707 30.5347 67.3464 29.6058 66.6573 28.8825C66.6573 28.8825 66.1406 28.1254 66.6573 26.8522L68.5177 22.515C68.5177 22.515 69.0343 21.2762 70.5503 21.2762H73.7204C73.7204 21.2762 75.2706 21.3449 74.6156 22.8591L72.4798 27.8503C72.4798 27.8503 71.412 30.707 73.7204 30.707C73.7204 30.707 77.1652 30.9822 79.026 27.5062C79.026 27.5062 79.4397 26.3013 80.3695 26.2671H84.297C84.297 26.2671 85.8821 26.3013 85.1242 27.6096C85.1242 27.6096 83.9868 30.3974 80.7484 31.6021C80.7484 31.6021 83.9178 32.8412 82.5053 35.9392C82.5053 35.9392 82.0229 37.0746 81.0586 37.0746H77.062C77.062 37.0746 75.9598 37.178 76.2697 36.1109C76.2697 36.1109 77.3719 33.4607 74.4089 32.979C74.4089 32.979 72.4798 32.3589 71.9632 33.6331L71.0328 35.8355C71.0328 35.8355 70.3091 37.1094 69.2069 37.1094H65.6579C65.6579 37.1094 64.3144 36.9712 65.0035 35.319Z" fill="#09090B"/>
<path fill-rule="evenodd" clip-rule="evenodd" d="M85.0897 30.5348H89.7409C89.7409 30.5348 91.6359 30.4321 91.6701 32.1528C91.6701 32.1528 91.601 33.7015 95.9769 33.7705C95.9769 33.7705 99.3185 33.9084 100.249 32.669C100.249 32.669 102.075 31.1547 97.4929 29.9156L89.155 27.6091C89.155 27.6091 85.5373 26.4393 86.5022 23.2382C86.5022 23.2382 87.5361 17.5588 101.662 17.3178C101.662 17.3178 115.718 16.6986 115.305 24.5807C115.305 24.5807 115.305 27.093 113.238 27.093H108.242C108.242 27.093 106.52 27.1616 106.554 25.4064C106.554 25.4064 107.208 21.655 103.384 21.001C103.384 21.001 97.6648 19.8991 95.598 22.8593C95.598 22.8593 94.6676 23.8922 95.8389 24.5807C95.8389 24.5807 96.8037 25.2685 99.1121 25.8887L104.521 27.4026C104.521 27.4026 111.515 29.0206 108.896 33.254C108.896 33.254 106.967 37.1437 95.7008 37.2813C95.7008 37.2813 83.4705 37.7974 83.2638 32.7379C83.2638 32.7379 83.0912 30.5348 85.0897 30.5348Z" fill="#09090B"/>
<path fill-rule="evenodd" clip-rule="evenodd" d="M121.856 34.0992C119.834 35.58 117.406 35.704 116.433 34.3773C115.458 33.0505 116.309 30.7753 118.331 29.2946C120.354 27.8138 122.782 27.6895 123.755 29.0162C124.729 30.3426 123.88 32.6185 121.856 34.0992ZM130.15 29.6731C129.563 26.692 124.587 25.1597 119.035 26.2516C113.482 27.3435 109.459 30.6455 110.047 33.6269C110.635 36.609 115.61 38.1403 121.163 37.0484C126.715 35.9566 130.739 32.6546 130.15 29.6731Z" fill="#09090B"/>
<path fill-rule="evenodd" clip-rule="evenodd" d="M124.194 40.4824C124.194 40.4824 124.427 39.4205 125.641 39.3822C125.664 39.3809 125.686 39.3806 125.71 39.3806H126.985C126.985 39.3806 128.018 39.484 128.363 38.4511L132.084 28.9175C132.084 28.9175 132.153 28.401 131.635 28.401H130.43C130.43 28.401 129.5 28.3324 129.741 27.3685C129.741 27.3685 130.016 26.2669 131.291 26.2669H132.394C132.394 26.2669 133.151 26.2328 133.772 25.2685C133.772 25.2685 136.079 21.3405 141.031 21.3405H143.841C143.841 21.3405 144.802 21.3772 144.469 22.3744C144.469 22.3744 144.247 23.5561 143.138 23.5561H141.327C141.327 23.5561 140.477 23.6302 140.218 24.3316L139.59 25.8459C139.59 25.8459 139.257 26.3262 140.181 26.3262H141.66C141.66 26.3262 142.658 26.4 142.436 27.1384C142.436 27.1384 142.288 28.431 140.958 28.431H139.294C139.294 28.431 138.629 28.3572 138.333 29.0216L135.043 37.3309C135.043 37.3309 133.565 41.725 127.17 41.6516H124.989C124.989 41.6516 123.842 41.64 124.194 40.4824Z" fill="#09090B"/>
<path fill-rule="evenodd" clip-rule="evenodd" d="M143.176 33.0471L144.876 28.9848C144.876 28.9848 145.245 28.3198 144.58 28.3198H143.36C143.36 28.3198 142.437 28.2834 142.732 27.4338C142.732 27.4338 142.767 26.3513 143.992 26.2914C144.028 26.2898 144.063 26.2888 144.1 26.2888H145.171C145.171 26.2888 146.022 26.2524 146.465 25.292L147.685 22.4114C147.685 22.4114 148.203 21.3775 149.312 21.3775L153.008 21.3405C153.008 21.3405 154.375 21.3775 153.784 22.6698L152.602 25.5504C152.602 25.5504 152.195 26.3258 153.082 26.3258H154.635C154.635 26.3258 155.411 26.474 155.226 27.1751C155.226 27.1751 155.041 28.431 153.71 28.431H152.269C152.269 28.431 151.345 28.2834 150.975 29.2432L148.942 34.3023C148.942 34.3023 148.536 35.0411 149.312 35.0411H150.014C150.014 35.0411 151.012 35.0044 150.827 36.0012C150.827 36.0012 150.606 37.3305 149.423 37.3305H147.907C147.907 37.3305 141.697 37.0354 143.176 33.0471Z" fill="#09090B"/>
<path fill-rule="evenodd" clip-rule="evenodd" d="M157.871 21.5515C159 21.5515 159.915 20.6364 159.915 19.5075C159.915 18.3786 159 17.4634 157.871 17.4634C156.742 17.4634 155.827 18.3786 155.827 19.5075C155.827 20.6364 156.742 21.5515 157.871 21.5515ZM157.871 21.1559C156.961 21.1559 156.223 20.4179 156.223 19.5075C156.223 18.5971 156.961 17.8591 157.871 17.8591C158.782 17.8591 159.52 18.5971 159.52 19.5075C159.52 20.4179 158.782 21.1559 157.871 21.1559Z" fill="white"/>
<path fill-rule="evenodd" clip-rule="evenodd" d="M157.748 19.3187H157.856C157.977 19.3187 158.071 19.2925 158.138 19.2399C158.205 19.1874 158.239 19.1073 158.239 18.9994C158.239 18.9239 158.217 18.8672 158.173 18.8294C158.129 18.7917 158.061 18.7728 157.967 18.7728H157.864L157.748 19.3187ZM157.675 19.667L157.51 20.4424H157.089L157.516 18.4217H158.012C158.231 18.4217 158.395 18.4687 158.504 18.5627C158.614 18.6567 158.669 18.7944 158.669 18.9759C158.669 19.1215 158.63 19.2466 158.554 19.3512C158.477 19.4558 158.367 19.5334 158.224 19.5841L158.584 20.4424H158.125L157.839 19.667H157.675Z" fill="white"/>
</g>
<defs>
<clipPath id="clip0_20_44">
<rect width="160" height="55.2727" fill="white"/>
</clipPath>
</defs>
</svg>
