<svg width="130" height="50" viewBox="0 0 130 50" fill="none" xmlns="http://www.w3.org/2000/svg">
<g clip-path="url(#clip0_20_6)">
<path fill-rule="evenodd" clip-rule="evenodd" d="M30.2443 23.1256C30.2443 29.4766 25.304 34.7523 19.0878 35.284V41.2013C28.5589 40.6606 36.14 32.7353 36.14 23.1256V5.0202H19.0878V10.9256H30.2443V23.1286V23.1256Z" fill="white"/>
<path fill-rule="evenodd" clip-rule="evenodd" d="M17.0255 41.2013V35.284C15.5568 35.1593 14.1622 34.7701 12.8834 34.1641L9.9281 39.2883C12.0852 40.3844 14.4857 41.0587 17.0255 41.2043V41.2013Z" fill="white"/>
<path fill-rule="evenodd" clip-rule="evenodd" d="M8.1419 38.2486L11.0972 33.1214C9.91923 32.2956 8.89259 31.2678 8.06772 30.0885L2.94641 33.0472C4.30834 35.1117 6.07676 36.8851 8.13893 38.2456L8.1419 38.2486Z" fill="white"/>
<path fill-rule="evenodd" clip-rule="evenodd" d="M1.91382 31.2649L7.03216 28.3062C6.42686 27.0289 6.03816 25.6298 5.91354 24.1594H0C0.145391 26.6992 0.818935 29.1053 1.91382 31.2649Z" fill="white"/>
<path fill-rule="evenodd" clip-rule="evenodd" d="M0 22.0918H5.91057C6.0352 20.6214 6.42389 19.2253 7.02919 17.945L1.91382 14.9863C0.818935 17.1459 0.145391 19.552 0 22.0918Z" fill="white"/>
<path fill-rule="evenodd" clip-rule="evenodd" d="M2.94934 13.201L8.07065 16.1597C8.89552 14.9804 9.92216 13.9526 11.1001 13.1268L8.14483 7.99963C6.08266 9.36311 4.31127 11.1335 2.95231 13.1981L2.94934 13.201Z" fill="white"/>
<path fill-rule="evenodd" clip-rule="evenodd" d="M9.9281 6.96295L12.8834 12.0871C14.1593 11.4811 15.5568 11.092 17.0255 10.9672V5.04993C14.4886 5.19548 12.0852 5.86979 9.9281 6.96592V6.96295Z" fill="white"/>
<path fill-rule="evenodd" clip-rule="evenodd" d="M18.0789 18.9312C15.7705 18.9312 13.8893 20.8145 13.8893 23.1256C13.8893 25.4367 15.7705 27.32 18.0789 27.32C20.3874 27.32 22.2685 25.4367 22.2685 23.1256C22.2685 20.8145 20.3874 18.9312 18.0789 18.9312Z" fill="white"/>
<path fill-rule="evenodd" clip-rule="evenodd" d="M66.3071 13.4149H59.7793V24.3554C59.7793 30.3945 57.3552 32.8719 53.6462 32.8719C50.6286 32.8719 48.6525 30.546 48.6525 27.0794V13.4149H42.1248V28.4636C42.1248 34.6037 46.08 38.8605 52.0143 38.8605C55.2782 38.8605 57.8507 37.8208 59.7793 35.89V38.1179H66.3071V13.4149ZM87.9169 12.6723C84.4542 12.6723 81.7363 13.712 79.7572 15.5448V0H73.2295V38.1208H79.7572V35.991C81.7363 37.8238 84.4542 38.8635 87.9169 38.8635C94.1983 38.8635 100.032 33.567 100.032 25.7931C100.032 18.0193 94.1983 12.6753 87.9169 12.6753V12.6723ZM86.7805 33.169C83.2703 33.169 79.7572 30.347 79.7572 25.7931C79.7572 21.2393 83.2673 18.3668 86.7805 18.3668C90.7357 18.3668 93.7028 21.2393 93.7028 25.7931C93.7028 30.347 90.7357 33.169 86.7805 33.169ZM115.066 29.2092L108.539 13.3674H101.269L111.506 37.3782L106.067 50.003H113.336L118.603 37.8119" fill="white"/>
<path fill-rule="evenodd" clip-rule="evenodd" d="M116.312 28.6003L119.194 35.8662C119.381 36.3355 120.036 36.3445 120.238 35.8811L129.955 13.3822C130.041 13.1862 130.006 12.9575 129.869 12.7941L129.825 12.7406C129.718 12.6129 129.558 12.5356 129.392 12.5356H123.861C123.766 12.5356 123.674 12.5594 123.591 12.604L123.256 12.7881L122.986 12.9515C122.885 13.0139 122.808 13.103 122.76 13.21L116.318 28.1606C116.259 28.2973 116.256 28.4547 116.312 28.5943V28.6003Z" fill="white"/>
</g>
<defs>
<clipPath id="clip0_20_6">
<rect width="130" height="50" fill="white"/>
</clipPath>
</defs>
</svg>
